<?xml version="1.0" encoding="utf-8"?>
<!-- Generator: Adobe Illustrator 27.5.0, SVG Export Plug-In . SVG Version: 6.00 Build 0)  -->
<svg version="1.1" baseProfile="tiny" xmlns="http://www.w3.org/2000/svg" xmlns:xlink="http://www.w3.org/1999/xlink" x="0px"
	 y="0px" viewBox="0 0 1368 828" overflow="visible" xml:space="preserve">
<g id="top_frame">
	<path id="area_00000168110547478392541440000018443407681490250897_" fill="#FFFFFF" stroke="#ED1C24" stroke-miterlimit="10" d="
		M221.86,372.58H67.28c-6.6,0-12-5.4-12-12V206c0-6.6,5.4-12,12-12h154.58c6.6,0,12,5.4,12,12v154.58
		C233.86,367.18,228.46,372.58,221.86,372.58z"/>
	<g id="frame_sinks_00000152949666050289673750000003477290400863293887_">
		<circle fill="#FFFFFF" stroke="#ED1C24" stroke-miterlimit="10" cx="223.94" cy="204.09" r="4.54"/>
		<circle fill="#FFFFFF" stroke="#ED1C24" stroke-miterlimit="10" cx="65.2" cy="204.09" r="4.54"/>
		<circle fill="#FFFFFF" stroke="#ED1C24" stroke-miterlimit="10" cx="223.94" cy="362.83" r="4.54"/>
		<circle fill="#FFFFFF" stroke="#ED1C24" stroke-miterlimit="10" cx="65.2" cy="362.83" r="4.54"/>
	</g>
	<g>
		<path d="M119.13,310.91c0.34-0.07,0.88-0.13,1.43-0.13c0.78,0,1.29,0.13,1.67,0.44c0.31,0.23,0.5,0.59,0.5,1.07
			c0,0.59-0.39,1.1-1.03,1.33v0.02c0.58,0.14,1.25,0.62,1.25,1.52c0,0.52-0.21,0.92-0.51,1.22c-0.42,0.39-1.11,0.57-2.1,0.57
			c-0.54,0-0.95-0.04-1.22-0.07V310.91z M119.91,313.4h0.71c0.83,0,1.31-0.43,1.31-1.02c0-0.71-0.54-0.99-1.33-0.99
			c-0.36,0-0.57,0.03-0.69,0.05V313.4z M119.91,316.31c0.15,0.03,0.38,0.04,0.66,0.04c0.81,0,1.56-0.3,1.56-1.18
			c0-0.83-0.71-1.17-1.57-1.17h-0.65V316.31z"/>
		<path d="M127.63,315.71c0,0.45,0.01,0.85,0.04,1.19h-0.7l-0.04-0.71h-0.02c-0.21,0.35-0.67,0.81-1.44,0.81
			c-0.68,0-1.5-0.38-1.5-1.91v-2.55h0.79v2.41c0,0.83,0.25,1.39,0.97,1.39c0.53,0,0.9-0.37,1.04-0.72c0.04-0.12,0.07-0.26,0.07-0.41
			v-2.67h0.79V315.71z"/>
		<path d="M132.05,316.74c-0.21,0.11-0.67,0.25-1.25,0.25c-1.31,0-2.17-0.89-2.17-2.22c0-1.34,0.92-2.31,2.34-2.31
			c0.47,0,0.88,0.12,1.1,0.23l-0.18,0.61c-0.19-0.11-0.49-0.21-0.92-0.21c-1,0-1.54,0.74-1.54,1.65c0,1.01,0.65,1.63,1.51,1.63
			c0.45,0,0.75-0.12,0.97-0.22L132.05,316.74z"/>
		<path d="M133.75,314.54h0.02c0.11-0.15,0.26-0.34,0.39-0.5l1.28-1.5h0.95l-1.68,1.79l1.92,2.57h-0.96l-1.5-2.09l-0.41,0.45v1.64
			h-0.78v-6.39h0.78V314.54z"/>
		<path d="M142.21,316.74c-0.21,0.11-0.67,0.25-1.25,0.25c-1.31,0-2.17-0.89-2.17-2.22c0-1.34,0.92-2.31,2.34-2.31
			c0.47,0,0.88,0.12,1.1,0.23l-0.18,0.61c-0.19-0.11-0.49-0.21-0.92-0.21c-1,0-1.54,0.74-1.54,1.65c0,1.01,0.65,1.63,1.51,1.63
			c0.45,0,0.75-0.12,0.97-0.22L142.21,316.74z"/>
		<path d="M147.02,314.68c0,1.61-1.12,2.31-2.17,2.31c-1.18,0-2.09-0.86-2.09-2.24c0-1.46,0.95-2.31,2.16-2.31
			C146.17,312.44,147.02,313.35,147.02,314.68z M143.56,314.73c0,0.95,0.55,1.67,1.32,1.67c0.76,0,1.32-0.71,1.32-1.69
			c0-0.74-0.37-1.67-1.31-1.67C143.97,313.04,143.56,313.9,143.56,314.73z"/>
		<path d="M148.02,313.72c0-0.45-0.01-0.82-0.04-1.18h0.7l0.04,0.72h0.02c0.22-0.41,0.72-0.82,1.44-0.82c0.6,0,1.54,0.36,1.54,1.85
			v2.6h-0.79v-2.51c0-0.7-0.26-1.29-1.01-1.29c-0.52,0-0.93,0.37-1.06,0.81c-0.04,0.1-0.05,0.23-0.05,0.37v2.62h-0.79V313.72z"/>
		<path d="M153.2,312.54l0.85,2.45c0.14,0.4,0.26,0.76,0.35,1.12h0.03c0.1-0.36,0.23-0.72,0.37-1.12l0.85-2.45h0.83l-1.71,4.36
			h-0.76l-1.66-4.36H153.2z"/>
		<path d="M157.58,314.86c0.02,1.07,0.7,1.51,1.49,1.51c0.57,0,0.91-0.1,1.21-0.23l0.13,0.57c-0.28,0.13-0.76,0.27-1.45,0.27
			c-1.34,0-2.14-0.88-2.14-2.2c0-1.31,0.77-2.35,2.04-2.35c1.42,0,1.8,1.25,1.8,2.05c0,0.16-0.02,0.29-0.03,0.37H157.58z
			 M159.9,314.3c0.01-0.5-0.21-1.29-1.1-1.29c-0.8,0-1.15,0.74-1.22,1.29H159.9z"/>
		<path d="M161.65,313.9c0-0.51-0.01-0.95-0.04-1.36h0.69l0.03,0.86h0.04c0.2-0.59,0.68-0.95,1.21-0.95c0.09,0,0.15,0.01,0.23,0.03
			v0.75c-0.08-0.02-0.16-0.03-0.27-0.03c-0.56,0-0.95,0.42-1.06,1.02c-0.02,0.11-0.04,0.23-0.04,0.37v2.32h-0.78V313.9z"/>
		<path d="M165.76,311.29v1.25h1.13v0.6h-1.13v2.35c0,0.54,0.15,0.85,0.59,0.85c0.21,0,0.36-0.03,0.46-0.05l0.04,0.59
			c-0.15,0.06-0.4,0.11-0.7,0.11c-0.37,0-0.67-0.12-0.85-0.33c-0.23-0.23-0.31-0.62-0.31-1.13v-2.38h-0.68v-0.6h0.68v-1.04
			L165.76,311.29z"/>
		<path d="M171.67,314.68c0,1.61-1.12,2.31-2.17,2.31c-1.18,0-2.09-0.86-2.09-2.24c0-1.46,0.95-2.31,2.16-2.31
			C170.83,312.44,171.67,313.35,171.67,314.68z M168.21,314.73c0,0.95,0.55,1.67,1.32,1.67c0.76,0,1.32-0.71,1.32-1.69
			c0-0.74-0.37-1.67-1.31-1.67C168.62,313.04,168.21,313.9,168.21,314.73z"/>
		<path d="M172.67,313.9c0-0.51-0.01-0.95-0.04-1.36h0.69l0.03,0.86h0.04c0.2-0.59,0.68-0.95,1.21-0.95c0.09,0,0.15,0.01,0.22,0.03
			v0.75c-0.08-0.02-0.16-0.03-0.27-0.03c-0.56,0-0.95,0.42-1.06,1.02c-0.02,0.11-0.04,0.23-0.04,0.37v2.32h-0.78V313.9z"/>
	</g>
	<g>
		<path d="M118.05,241.3h3.27v0.66h-2.48v2.02h2.3v0.65h-2.3v2.75h-0.78V241.3z"/>
		<path d="M122.57,245.34c0.02,1.07,0.7,1.51,1.49,1.51c0.57,0,0.91-0.1,1.21-0.23l0.13,0.57c-0.28,0.13-0.76,0.27-1.45,0.27
			c-1.34,0-2.14-0.88-2.14-2.2c0-1.31,0.77-2.35,2.04-2.35c1.42,0,1.8,1.25,1.8,2.05c0,0.16-0.02,0.29-0.03,0.37H122.57z
			 M124.9,244.77c0.01-0.5-0.21-1.29-1.1-1.29c-0.8,0-1.15,0.74-1.22,1.29H124.9z"/>
		<path d="M129.05,247.37l-0.06-0.55h-0.03c-0.24,0.34-0.71,0.65-1.33,0.65c-0.88,0-1.33-0.62-1.33-1.25c0-1.05,0.94-1.63,2.62-1.62
			v-0.09c0-0.36-0.1-1.01-0.99-1.01c-0.4,0-0.83,0.13-1.13,0.32l-0.18-0.52c0.36-0.23,0.88-0.39,1.43-0.39
			c1.33,0,1.66,0.91,1.66,1.78v1.63c0,0.38,0.02,0.75,0.07,1.04H129.05z M128.94,245.15c-0.86-0.02-1.85,0.14-1.85,0.98
			c0,0.51,0.34,0.76,0.75,0.76c0.57,0,0.93-0.36,1.05-0.73c0.03-0.08,0.05-0.17,0.05-0.25V245.15z"/>
		<path d="M131.9,241.76v1.25h1.13v0.6h-1.13v2.35c0,0.54,0.15,0.85,0.59,0.85c0.21,0,0.36-0.03,0.46-0.05l0.04,0.59
			c-0.15,0.06-0.4,0.11-0.7,0.11c-0.37,0-0.67-0.12-0.85-0.33c-0.23-0.23-0.31-0.62-0.31-1.13v-2.38h-0.68v-0.6h0.68v-1.04
			L131.9,241.76z"/>
		<path d="M133.92,240.98h0.79v2.72h0.02c0.13-0.22,0.32-0.42,0.57-0.56c0.23-0.13,0.51-0.23,0.81-0.23c0.59,0,1.52,0.36,1.52,1.86
			v2.59h-0.79v-2.5c0-0.7-0.26-1.3-1.01-1.3c-0.51,0-0.92,0.36-1.06,0.79c-0.04,0.11-0.05,0.23-0.05,0.38v2.63h-0.79V240.98z"/>
		<path d="M139.36,245.34c0.02,1.07,0.7,1.51,1.49,1.51c0.57,0,0.91-0.1,1.21-0.23l0.13,0.57c-0.28,0.13-0.76,0.27-1.45,0.27
			c-1.34,0-2.14-0.88-2.14-2.2c0-1.31,0.77-2.35,2.04-2.35c1.42,0,1.8,1.25,1.8,2.05c0,0.16-0.02,0.29-0.03,0.37H139.36z
			 M141.68,244.77c0.01-0.5-0.21-1.29-1.1-1.29c-0.8,0-1.15,0.74-1.22,1.29H141.68z"/>
		<path d="M143.42,244.37c0-0.51-0.01-0.95-0.04-1.36h0.69l0.03,0.86h0.04c0.2-0.59,0.68-0.95,1.21-0.95c0.09,0,0.15,0.01,0.23,0.03
			v0.75c-0.08-0.02-0.16-0.03-0.27-0.03c-0.56,0-0.95,0.42-1.06,1.02c-0.02,0.11-0.04,0.23-0.04,0.37v2.32h-0.78V244.37z"/>
		<path d="M146.37,247.37c0.02-0.3,0.04-0.74,0.04-1.13v-5.27h0.78v2.74h0.02c0.28-0.49,0.78-0.8,1.49-0.8
			c1.08,0,1.85,0.9,1.84,2.22c0,1.56-0.98,2.33-1.95,2.33c-0.63,0-1.13-0.24-1.46-0.82h-0.03l-0.04,0.72H146.37z M147.19,245.62
			c0,0.1,0.02,0.2,0.04,0.29c0.15,0.55,0.61,0.93,1.19,0.93c0.83,0,1.32-0.68,1.32-1.67c0-0.87-0.45-1.62-1.3-1.62
			c-0.54,0-1.04,0.37-1.21,0.97c-0.02,0.09-0.04,0.2-0.04,0.32V245.62z"/>
		<path d="M155.47,245.16c0,1.61-1.12,2.31-2.17,2.31c-1.18,0-2.09-0.86-2.09-2.24c0-1.46,0.95-2.31,2.16-2.31
			C154.62,242.91,155.47,243.82,155.47,245.16z M152.01,245.2c0,0.95,0.55,1.67,1.32,1.67c0.76,0,1.32-0.71,1.32-1.69
			c0-0.74-0.37-1.67-1.31-1.67C152.42,243.51,152.01,244.37,152.01,245.2z"/>
		<path d="M158.88,247.37l-0.06-0.55h-0.03c-0.24,0.34-0.71,0.65-1.33,0.65c-0.88,0-1.33-0.62-1.33-1.25c0-1.05,0.94-1.63,2.62-1.62
			v-0.09c0-0.36-0.1-1.01-0.99-1.01c-0.41,0-0.83,0.13-1.13,0.32l-0.18-0.52c0.36-0.23,0.88-0.39,1.43-0.39
			c1.33,0,1.66,0.91,1.66,1.78v1.63c0,0.38,0.02,0.75,0.07,1.04H158.88z M158.76,245.15c-0.86-0.02-1.85,0.14-1.85,0.98
			c0,0.51,0.34,0.76,0.75,0.76c0.57,0,0.93-0.36,1.05-0.73c0.03-0.08,0.04-0.17,0.04-0.25V245.15z"/>
		<path d="M160.8,244.37c0-0.51-0.01-0.95-0.04-1.36h0.69l0.03,0.86h0.04c0.2-0.59,0.68-0.95,1.21-0.95c0.09,0,0.15,0.01,0.23,0.03
			v0.75c-0.08-0.02-0.16-0.03-0.27-0.03c-0.56,0-0.95,0.42-1.06,1.02c-0.02,0.11-0.04,0.23-0.04,0.37v2.32h-0.78V244.37z"/>
		<path d="M167.42,240.98v5.27c0,0.39,0.01,0.83,0.04,1.13h-0.71l-0.04-0.76h-0.02c-0.24,0.49-0.77,0.86-1.49,0.86
			c-1.05,0-1.86-0.89-1.86-2.21c-0.01-1.45,0.89-2.34,1.95-2.34c0.67,0,1.12,0.32,1.31,0.67h0.02v-2.6H167.42z M166.63,244.79
			c0-0.1-0.01-0.23-0.04-0.33c-0.12-0.5-0.55-0.92-1.14-0.92c-0.82,0-1.31,0.72-1.31,1.68c0,0.88,0.43,1.61,1.29,1.61
			c0.53,0,1.02-0.35,1.16-0.95c0.03-0.11,0.04-0.22,0.04-0.34V244.79z"/>
	</g>
	<g>
		<path d="M92.93,367.25c0-0.3-0.01-0.55-0.02-0.79h0.46l0.02,0.47h0.02c0.16-0.28,0.43-0.53,0.91-0.53c0.4,0,0.7,0.24,0.82,0.58
			h0.01c0.09-0.16,0.2-0.29,0.32-0.38c0.17-0.13,0.37-0.2,0.64-0.2c0.38,0,0.95,0.25,0.95,1.26v1.71h-0.52v-1.64
			c0-0.56-0.2-0.89-0.63-0.89c-0.3,0-0.53,0.22-0.62,0.48c-0.02,0.07-0.04,0.17-0.04,0.26v1.79h-0.52v-1.74c0-0.46-0.2-0.8-0.61-0.8
			c-0.33,0-0.57,0.26-0.65,0.53c-0.03,0.08-0.04,0.17-0.04,0.26v1.75h-0.52V367.25z"/>
		<path d="M99.91,368.92H99.9c-0.16,0.29-0.48,0.52-0.95,0.52c-0.68,0-1.23-0.59-1.23-1.47c0-1.09,0.7-1.56,1.31-1.56
			c0.45,0,0.75,0.22,0.89,0.5h0.01l0.02-0.44h0.5c-0.01,0.25-0.02,0.5-0.02,0.8v3.29h-0.53V368.92z M99.91,367.64
			c0-0.07-0.01-0.16-0.02-0.22c-0.08-0.32-0.36-0.6-0.75-0.6c-0.55,0-0.88,0.46-0.88,1.12c0,0.58,0.28,1.08,0.86,1.08
			c0.34,0,0.64-0.21,0.76-0.58c0.02-0.07,0.04-0.17,0.04-0.25V367.64z"/>
		<path d="M101.95,365.63v0.83h0.76v0.4h-0.76v1.56c0,0.36,0.1,0.56,0.4,0.56c0.14,0,0.24-0.02,0.31-0.04l0.02,0.4
			c-0.1,0.04-0.26,0.07-0.47,0.07c-0.25,0-0.44-0.08-0.57-0.22c-0.15-0.16-0.2-0.41-0.2-0.76v-1.58h-0.45v-0.4h0.45v-0.7
			L101.95,365.63z"/>
		<path d="M103.93,365.63v0.83h0.76v0.4h-0.76v1.56c0,0.36,0.1,0.56,0.4,0.56c0.14,0,0.24-0.02,0.31-0.04l0.02,0.4
			c-0.1,0.04-0.26,0.07-0.47,0.07c-0.25,0-0.44-0.08-0.57-0.22c-0.15-0.16-0.2-0.41-0.2-0.76v-1.58h-0.45v-0.4h0.45v-0.7
			L103.93,365.63z"/>
		<path d="M107.84,369.82v0.3h-3v-0.3H107.84z"/>
		<path d="M108.28,367.37c0-0.34-0.01-0.64-0.02-0.91h0.46l0.02,0.57h0.02c0.13-0.39,0.45-0.64,0.8-0.64c0.06,0,0.1,0.01,0.15,0.02
			v0.5c-0.05-0.01-0.11-0.02-0.18-0.02c-0.37,0-0.64,0.28-0.71,0.68c-0.01,0.07-0.02,0.16-0.02,0.25v1.55h-0.52V367.37z"/>
		<path d="M110.48,368.01c0.01,0.71,0.47,1.01,1,1.01c0.38,0,0.61-0.07,0.8-0.15l0.09,0.38c-0.19,0.08-0.5,0.18-0.96,0.18
			c-0.89,0-1.43-0.59-1.43-1.46s0.52-1.56,1.36-1.56c0.95,0,1.2,0.83,1.2,1.37c0,0.11-0.01,0.19-0.02,0.25H110.48z M112.02,367.64
			c0.01-0.34-0.14-0.86-0.73-0.86c-0.53,0-0.77,0.49-0.81,0.86H112.02z"/>
		<path d="M113.12,368.83c0.16,0.1,0.43,0.21,0.7,0.21c0.38,0,0.56-0.19,0.56-0.43c0-0.25-0.15-0.39-0.54-0.53
			c-0.52-0.19-0.77-0.47-0.77-0.82c0-0.47,0.38-0.85,1-0.85c0.29,0,0.55,0.08,0.71,0.18l-0.13,0.38c-0.11-0.07-0.32-0.17-0.59-0.17
			c-0.31,0-0.49,0.18-0.49,0.4c0,0.24,0.17,0.35,0.55,0.49c0.5,0.19,0.76,0.44,0.76,0.88c0,0.51-0.4,0.87-1.09,0.87
			c-0.32,0-0.61-0.08-0.82-0.2L113.12,368.83z"/>
		<path d="M115.57,367.42c0-0.37-0.01-0.67-0.02-0.95h0.47l0.02,0.5h0.01c0.22-0.35,0.56-0.56,1.03-0.56c0.7,0,1.23,0.59,1.23,1.48
			c0,1.04-0.63,1.56-1.32,1.56c-0.38,0-0.72-0.17-0.89-0.46h-0.01v1.58h-0.52V367.42z M116.09,368.19c0,0.08,0.01,0.15,0.02,0.22
			c0.1,0.37,0.41,0.62,0.79,0.62c0.56,0,0.88-0.46,0.88-1.12c0-0.58-0.31-1.08-0.86-1.08c-0.36,0-0.7,0.26-0.8,0.65
			c-0.02,0.07-0.04,0.14-0.04,0.22V368.19z"/>
		<path d="M121.61,367.9c0,1.07-0.74,1.54-1.45,1.54c-0.79,0-1.39-0.58-1.39-1.49c0-0.97,0.64-1.54,1.44-1.54
			C121.04,366.4,121.61,367.01,121.61,367.9z M119.3,367.92c0,0.64,0.37,1.12,0.88,1.12c0.5,0,0.88-0.47,0.88-1.13
			c0-0.49-0.25-1.12-0.87-1.12C119.57,366.8,119.3,367.37,119.3,367.92z"/>
		<path d="M122.27,367.25c0-0.3-0.01-0.55-0.02-0.79h0.47l0.03,0.48h0.01c0.14-0.28,0.48-0.55,0.96-0.55c0.4,0,1.03,0.24,1.03,1.24
			v1.73h-0.53v-1.67c0-0.47-0.17-0.86-0.67-0.86c-0.35,0-0.62,0.25-0.71,0.54c-0.02,0.07-0.04,0.16-0.04,0.25v1.75h-0.53V367.25z"/>
		<path d="M128.11,365.11v3.51c0,0.26,0.01,0.55,0.02,0.75h-0.47l-0.02-0.5h-0.01c-0.16,0.32-0.52,0.57-0.99,0.57
			c-0.7,0-1.24-0.59-1.24-1.48c-0.01-0.97,0.59-1.56,1.3-1.56c0.44,0,0.74,0.21,0.88,0.44h0.01v-1.73H128.11z M127.58,367.65
			c0-0.07-0.01-0.16-0.02-0.22c-0.08-0.34-0.37-0.61-0.76-0.61c-0.55,0-0.87,0.48-0.87,1.12c0,0.59,0.29,1.07,0.86,1.07
			c0.35,0,0.68-0.23,0.77-0.63c0.02-0.07,0.02-0.14,0.02-0.23V367.65z"/>
		<path d="M129.28,368.01c0.01,0.71,0.47,1.01,1,1.01c0.38,0,0.61-0.07,0.8-0.15l0.09,0.38c-0.19,0.08-0.5,0.18-0.96,0.18
			c-0.89,0-1.43-0.59-1.43-1.46s0.52-1.56,1.36-1.56c0.95,0,1.2,0.83,1.2,1.37c0,0.11-0.01,0.19-0.02,0.25H129.28z M130.83,367.64
			c0.01-0.34-0.14-0.86-0.73-0.86c-0.53,0-0.77,0.49-0.81,0.86H130.83z"/>
		<path d="M131.99,367.37c0-0.34-0.01-0.64-0.02-0.91h0.46l0.02,0.57h0.02c0.13-0.39,0.45-0.64,0.8-0.64c0.06,0,0.1,0.01,0.15,0.02
			v0.5c-0.05-0.01-0.11-0.02-0.18-0.02c-0.37,0-0.63,0.28-0.71,0.68c-0.01,0.07-0.02,0.16-0.02,0.25v1.55h-0.52V367.37z"/>
		<path d="M137.3,369.26c-0.14,0.07-0.44,0.17-0.83,0.17c-0.88,0-1.44-0.59-1.44-1.48c0-0.89,0.61-1.54,1.56-1.54
			c0.31,0,0.59,0.08,0.73,0.15l-0.12,0.41c-0.13-0.07-0.32-0.14-0.61-0.14c-0.67,0-1.03,0.49-1.03,1.1c0,0.67,0.43,1.09,1.01,1.09
			c0.3,0,0.5-0.08,0.65-0.14L137.3,369.26z"/>
		<path d="M139.52,369.37l-0.04-0.37h-0.02c-0.16,0.23-0.47,0.43-0.89,0.43c-0.59,0-0.89-0.41-0.89-0.83c0-0.7,0.62-1.09,1.75-1.08
			v-0.06c0-0.24-0.07-0.67-0.66-0.67c-0.27,0-0.55,0.08-0.76,0.22l-0.12-0.35c0.24-0.16,0.59-0.26,0.95-0.26
			c0.89,0,1.1,0.61,1.1,1.19v1.09c0,0.25,0.01,0.5,0.05,0.7H139.52z M139.44,367.89c-0.58-0.01-1.23,0.09-1.23,0.65
			c0,0.34,0.23,0.5,0.5,0.5c0.38,0,0.62-0.24,0.7-0.49c0.02-0.05,0.03-0.11,0.03-0.17V367.89z"/>
		<path d="M140.81,367.37c0-0.34-0.01-0.64-0.02-0.91h0.46l0.02,0.57h0.02c0.13-0.39,0.45-0.64,0.8-0.64c0.06,0,0.1,0.01,0.15,0.02
			v0.5c-0.05-0.01-0.11-0.02-0.18-0.02c-0.37,0-0.64,0.28-0.71,0.68c-0.01,0.07-0.02,0.16-0.02,0.25v1.55h-0.52V367.37z"/>
		<path d="M142.79,367.37c0-0.34-0.01-0.64-0.02-0.91h0.46l0.02,0.57h0.02c0.13-0.39,0.45-0.64,0.8-0.64c0.06,0,0.1,0.01,0.15,0.02
			v0.5c-0.05-0.01-0.11-0.02-0.18-0.02c-0.37,0-0.63,0.28-0.71,0.68c-0.01,0.07-0.02,0.16-0.02,0.25v1.55h-0.52V367.37z"/>
		<path d="M145.37,365.65c0.01,0.18-0.13,0.32-0.34,0.32c-0.19,0-0.32-0.14-0.32-0.32c0-0.19,0.14-0.33,0.33-0.33
			C145.24,365.32,145.37,365.47,145.37,365.65z M144.78,369.37v-2.9h0.53v2.9H144.78z"/>
		<path d="M146.48,368.01c0.01,0.71,0.47,1.01,1,1.01c0.38,0,0.61-0.07,0.8-0.15l0.09,0.38c-0.19,0.08-0.5,0.18-0.96,0.18
			c-0.89,0-1.43-0.59-1.43-1.46s0.52-1.56,1.36-1.56c0.95,0,1.2,0.83,1.2,1.37c0,0.11-0.01,0.19-0.02,0.25H146.48z M148.02,367.64
			c0.01-0.34-0.14-0.86-0.73-0.86c-0.53,0-0.77,0.49-0.81,0.86H148.02z"/>
		<path d="M149.19,367.37c0-0.34-0.01-0.64-0.02-0.91h0.46l0.02,0.57h0.02c0.13-0.39,0.45-0.64,0.8-0.64c0.06,0,0.1,0.01,0.15,0.02
			v0.5c-0.05-0.01-0.11-0.02-0.18-0.02c-0.37,0-0.63,0.28-0.71,0.68c-0.01,0.07-0.02,0.16-0.02,0.25v1.55h-0.52V367.37z"/>
		<path d="M152.4,369.37c0.01-0.2,0.02-0.49,0.02-0.75v-3.51h0.52v1.82h0.01c0.19-0.32,0.52-0.53,0.99-0.53
			c0.72,0,1.23,0.6,1.22,1.48c0,1.04-0.65,1.55-1.3,1.55c-0.42,0-0.75-0.16-0.97-0.55h-0.02l-0.02,0.48H152.4z M152.94,368.21
			c0,0.07,0.01,0.13,0.02,0.19c0.1,0.37,0.41,0.62,0.79,0.62c0.55,0,0.88-0.45,0.88-1.12c0-0.58-0.3-1.08-0.86-1.08
			c-0.36,0-0.7,0.25-0.8,0.65c-0.01,0.06-0.03,0.13-0.03,0.22V368.21z"/>
		<path d="M158.46,367.9c0,1.07-0.74,1.54-1.45,1.54c-0.79,0-1.39-0.58-1.39-1.49c0-0.97,0.64-1.54,1.44-1.54
			C157.9,366.4,158.46,367.01,158.46,367.9z M156.16,367.92c0,0.64,0.37,1.12,0.88,1.12c0.5,0,0.88-0.47,0.88-1.13
			c0-0.49-0.25-1.12-0.87-1.12S156.16,367.37,156.16,367.92z"/>
		<path d="M160.74,369.37L160.7,369h-0.02c-0.16,0.23-0.47,0.43-0.89,0.43c-0.59,0-0.89-0.41-0.89-0.83c0-0.7,0.62-1.09,1.75-1.08
			v-0.06c0-0.24-0.07-0.67-0.66-0.67c-0.27,0-0.55,0.08-0.76,0.22l-0.12-0.35c0.24-0.16,0.59-0.26,0.95-0.26
			c0.89,0,1.1,0.61,1.1,1.19v1.09c0,0.25,0.01,0.5,0.05,0.7H160.74z M160.66,367.89c-0.58-0.01-1.23,0.09-1.23,0.65
			c0,0.34,0.23,0.5,0.5,0.5c0.38,0,0.62-0.24,0.7-0.49c0.02-0.05,0.03-0.11,0.03-0.17V367.89z"/>
		<path d="M162.02,367.37c0-0.34-0.01-0.64-0.02-0.91h0.46l0.02,0.57h0.02c0.13-0.39,0.45-0.64,0.8-0.64c0.06,0,0.1,0.01,0.15,0.02
			v0.5c-0.05-0.01-0.11-0.02-0.18-0.02c-0.37,0-0.63,0.28-0.71,0.68c-0.01,0.07-0.02,0.16-0.02,0.25v1.55h-0.52V367.37z"/>
		<path d="M166.43,365.11v3.51c0,0.26,0.01,0.55,0.02,0.75h-0.47l-0.02-0.5h-0.01c-0.16,0.32-0.52,0.57-0.99,0.57
			c-0.7,0-1.24-0.59-1.24-1.48c-0.01-0.97,0.59-1.56,1.3-1.56c0.44,0,0.74,0.21,0.88,0.44h0.01v-1.73H166.43z M165.9,367.65
			c0-0.07-0.01-0.16-0.02-0.22c-0.08-0.34-0.37-0.61-0.76-0.61c-0.55,0-0.87,0.48-0.87,1.12c0,0.59,0.29,1.07,0.86,1.07
			c0.35,0,0.68-0.23,0.77-0.63c0.02-0.07,0.02-0.14,0.02-0.23V367.65z"/>
		<path d="M171,367.38c0,1.33-0.49,2.06-1.35,2.06c-0.76,0-1.28-0.71-1.29-2c0-1.31,0.56-2.03,1.36-2.03
			C170.54,365.41,171,366.14,171,367.38z M168.89,367.44c0,1.01,0.31,1.59,0.79,1.59c0.54,0,0.8-0.63,0.8-1.62
			c0-0.96-0.25-1.59-0.79-1.59C169.22,365.81,168.89,366.38,168.89,367.44z"/>
		<path d="M172.64,365.96h-0.01l-0.68,0.37l-0.1-0.4l0.85-0.46h0.45v3.9h-0.51V365.96z"/>
		<path d="M174.57,369.37v-0.32l0.41-0.4c1-0.95,1.45-1.45,1.45-2.04c0-0.4-0.19-0.76-0.77-0.76c-0.35,0-0.65,0.18-0.83,0.33
			l-0.17-0.37c0.27-0.23,0.65-0.4,1.1-0.4c0.84,0,1.19,0.58,1.19,1.13c0,0.72-0.52,1.3-1.34,2.09l-0.31,0.29v0.01h1.75v0.44H174.57z
			"/>
		<path d="M177.77,368.76c0.15,0.1,0.5,0.25,0.86,0.25c0.68,0,0.89-0.43,0.88-0.76c-0.01-0.55-0.5-0.78-1.01-0.78h-0.29v-0.4h0.29
			c0.38,0,0.87-0.2,0.87-0.66c0-0.31-0.2-0.59-0.68-0.59c-0.31,0-0.61,0.14-0.78,0.26l-0.14-0.38c0.2-0.15,0.6-0.3,1.02-0.3
			c0.77,0,1.12,0.46,1.12,0.93c0,0.4-0.24,0.74-0.72,0.92v0.01c0.48,0.1,0.87,0.46,0.87,1c0,0.62-0.49,1.17-1.42,1.17
			c-0.44,0-0.82-0.14-1.01-0.26L177.77,368.76z"/>
		<path d="M180.73,369.37v-0.32l0.41-0.4c1-0.95,1.45-1.45,1.45-2.04c0-0.4-0.19-0.76-0.77-0.76c-0.35,0-0.65,0.18-0.83,0.33
			l-0.17-0.37c0.27-0.23,0.65-0.4,1.1-0.4c0.84,0,1.19,0.58,1.19,1.13c0,0.72-0.52,1.3-1.34,2.09l-0.31,0.29v0.01h1.75v0.44H180.73z
			"/>
		<path d="M185.43,369.37v-1.06h-1.81v-0.35l1.74-2.49h0.57v2.42h0.54v0.41h-0.54v1.06H185.43z M185.43,367.9v-1.3
			c0-0.2,0.01-0.41,0.02-0.61h-0.02c-0.12,0.23-0.22,0.4-0.32,0.58l-0.95,1.33v0.01H185.43z"/>
	</g>
</g>
<g id="bottom_frame">
	<path id="area_00000083061365669015637380000012439377069857760934_" fill="#FFFFFF" stroke="#ED1C24" stroke-miterlimit="10" d="
		M221.86,194H67.28c-6.6,0-12-5.4-12-12V27.41c0-6.6,5.4-12,12-12h154.58c6.6,0,12,5.4,12,12V182
		C233.86,188.6,228.46,194,221.86,194z"/>
	<g id="frame_sinks">
		<circle fill="#FFFFFF" stroke="#ED1C24" stroke-miterlimit="10" cx="223.94" cy="25.51" r="4.54"/>
		<circle fill="#FFFFFF" stroke="#ED1C24" stroke-miterlimit="10" cx="65.2" cy="25.51" r="4.54"/>
		<circle fill="#FFFFFF" stroke="#ED1C24" stroke-miterlimit="10" cx="223.94" cy="184.25" r="4.54"/>
		<circle fill="#FFFFFF" stroke="#ED1C24" stroke-miterlimit="10" cx="65.2" cy="184.25" r="4.54"/>
	</g>
	<g>
		<path d="M93.34,188.67c0-0.3-0.01-0.55-0.02-0.79h0.46l0.02,0.47h0.02c0.16-0.28,0.43-0.53,0.91-0.53c0.4,0,0.7,0.24,0.82,0.58
			h0.01c0.09-0.16,0.2-0.29,0.32-0.38c0.17-0.13,0.37-0.2,0.64-0.2c0.38,0,0.95,0.25,0.95,1.26v1.71h-0.52v-1.64
			c0-0.56-0.2-0.89-0.63-0.89c-0.3,0-0.53,0.22-0.62,0.48c-0.02,0.07-0.04,0.17-0.04,0.26v1.79h-0.52v-1.74c0-0.46-0.2-0.8-0.61-0.8
			c-0.33,0-0.57,0.26-0.65,0.53c-0.03,0.08-0.04,0.17-0.04,0.26v1.75h-0.52V188.67z"/>
		<path d="M100.33,190.34h-0.01c-0.16,0.29-0.48,0.52-0.95,0.52c-0.68,0-1.23-0.59-1.23-1.47c0-1.09,0.7-1.56,1.31-1.56
			c0.45,0,0.75,0.22,0.89,0.5h0.01l0.02-0.44h0.5c-0.01,0.25-0.02,0.5-0.02,0.8v3.29h-0.53V190.34z M100.33,189.06
			c0-0.07-0.01-0.16-0.02-0.22c-0.08-0.32-0.36-0.6-0.76-0.6c-0.55,0-0.88,0.46-0.88,1.12c0,0.58,0.28,1.08,0.86,1.08
			c0.34,0,0.64-0.21,0.76-0.58c0.02-0.07,0.04-0.17,0.04-0.25V189.06z"/>
		<path d="M102.36,187.05v0.83h0.76v0.4h-0.76v1.56c0,0.36,0.1,0.56,0.4,0.56c0.14,0,0.24-0.02,0.31-0.04l0.02,0.4
			c-0.1,0.04-0.26,0.07-0.47,0.07c-0.25,0-0.44-0.08-0.57-0.22c-0.15-0.16-0.2-0.41-0.2-0.76v-1.58h-0.45v-0.4h0.45v-0.7
			L102.36,187.05z"/>
		<path d="M104.35,187.05v0.83h0.76v0.4h-0.76v1.56c0,0.36,0.1,0.56,0.4,0.56c0.14,0,0.24-0.02,0.31-0.04l0.02,0.4
			c-0.1,0.04-0.26,0.07-0.47,0.07c-0.25,0-0.44-0.08-0.57-0.22c-0.15-0.16-0.2-0.41-0.2-0.76v-1.58h-0.45v-0.4h0.45v-0.7
			L104.35,187.05z"/>
		<path d="M108.26,191.24v0.3h-3v-0.3H108.26z"/>
		<path d="M108.7,188.79c0-0.34-0.01-0.64-0.02-0.91h0.46l0.02,0.57h0.02c0.13-0.39,0.45-0.64,0.8-0.64c0.06,0,0.1,0.01,0.15,0.02
			v0.5c-0.05-0.01-0.11-0.02-0.18-0.02c-0.37,0-0.64,0.28-0.71,0.68c-0.01,0.07-0.02,0.16-0.02,0.25v1.55h-0.52V188.79z"/>
		<path d="M110.89,189.43c0.01,0.71,0.47,1.01,1,1.01c0.38,0,0.61-0.07,0.8-0.15l0.09,0.38c-0.19,0.08-0.5,0.18-0.97,0.18
			c-0.89,0-1.43-0.59-1.43-1.46s0.52-1.56,1.36-1.56c0.95,0,1.2,0.83,1.2,1.37c0,0.11-0.01,0.19-0.02,0.25H110.89z M112.44,189.05
			c0.01-0.34-0.14-0.86-0.73-0.86c-0.53,0-0.77,0.49-0.81,0.86H112.44z"/>
		<path d="M113.53,190.25c0.16,0.1,0.43,0.21,0.7,0.21c0.38,0,0.56-0.19,0.56-0.43c0-0.25-0.15-0.39-0.54-0.53
			c-0.52-0.19-0.77-0.47-0.77-0.82c0-0.47,0.38-0.85,1-0.85c0.29,0,0.55,0.08,0.71,0.18l-0.13,0.38c-0.11-0.07-0.32-0.17-0.59-0.17
			c-0.31,0-0.49,0.18-0.49,0.4c0,0.24,0.17,0.35,0.55,0.49c0.5,0.19,0.76,0.44,0.76,0.88c0,0.51-0.4,0.87-1.09,0.87
			c-0.32,0-0.61-0.08-0.82-0.2L113.53,190.25z"/>
		<path d="M115.98,188.83c0-0.37-0.01-0.67-0.02-0.95h0.47l0.02,0.5h0.01c0.22-0.35,0.56-0.56,1.03-0.56c0.7,0,1.23,0.59,1.23,1.48
			c0,1.04-0.64,1.56-1.32,1.56c-0.38,0-0.72-0.17-0.89-0.46h-0.01v1.58h-0.52V188.83z M116.5,189.61c0,0.08,0.01,0.15,0.02,0.22
			c0.1,0.37,0.41,0.62,0.79,0.62c0.56,0,0.88-0.46,0.88-1.12c0-0.58-0.31-1.08-0.86-1.08c-0.36,0-0.7,0.26-0.8,0.65
			c-0.02,0.07-0.04,0.14-0.04,0.22V189.61z"/>
		<path d="M122.02,189.31c0,1.07-0.74,1.54-1.45,1.54c-0.79,0-1.39-0.58-1.39-1.49c0-0.97,0.64-1.54,1.44-1.54
			C121.46,187.82,122.02,188.42,122.02,189.31z M119.72,189.34c0,0.64,0.37,1.12,0.88,1.12c0.5,0,0.88-0.47,0.88-1.13
			c0-0.49-0.25-1.12-0.87-1.12C119.99,188.21,119.72,188.79,119.72,189.34z"/>
		<path d="M122.69,188.67c0-0.3-0.01-0.55-0.02-0.79h0.47l0.03,0.48h0.01c0.14-0.28,0.48-0.55,0.96-0.55c0.4,0,1.03,0.24,1.03,1.24
			v1.73h-0.53v-1.67c0-0.47-0.17-0.86-0.67-0.86c-0.35,0-0.62,0.25-0.71,0.54c-0.02,0.07-0.04,0.16-0.04,0.25v1.75h-0.53V188.67z"/>
		<path d="M128.52,186.53v3.51c0,0.26,0.01,0.55,0.02,0.75h-0.47l-0.02-0.5h-0.01c-0.16,0.32-0.52,0.57-0.99,0.57
			c-0.7,0-1.24-0.59-1.24-1.48c-0.01-0.97,0.59-1.56,1.3-1.56c0.44,0,0.74,0.21,0.88,0.44H128v-1.73H128.52z M128,189.07
			c0-0.07-0.01-0.16-0.02-0.22c-0.08-0.34-0.37-0.61-0.76-0.61c-0.55,0-0.87,0.48-0.87,1.12c0,0.59,0.29,1.07,0.86,1.07
			c0.35,0,0.68-0.23,0.77-0.63c0.02-0.07,0.02-0.14,0.02-0.23V189.07z"/>
		<path d="M129.7,189.43c0.01,0.71,0.47,1.01,1,1.01c0.38,0,0.61-0.07,0.8-0.15l0.09,0.38c-0.19,0.08-0.5,0.18-0.97,0.18
			c-0.89,0-1.43-0.59-1.43-1.46s0.52-1.56,1.36-1.56c0.95,0,1.2,0.83,1.2,1.37c0,0.11-0.01,0.19-0.02,0.25H129.7z M131.24,189.05
			c0.01-0.34-0.14-0.86-0.73-0.86c-0.53,0-0.77,0.49-0.81,0.86H131.24z"/>
		<path d="M132.41,188.79c0-0.34-0.01-0.64-0.02-0.91h0.46l0.02,0.57h0.02c0.13-0.39,0.45-0.64,0.8-0.64c0.06,0,0.1,0.01,0.15,0.02
			v0.5c-0.05-0.01-0.11-0.02-0.18-0.02c-0.37,0-0.64,0.28-0.71,0.68c-0.01,0.07-0.02,0.16-0.02,0.25v1.55h-0.52V188.79z"/>
		<path d="M137.71,190.68c-0.14,0.07-0.44,0.17-0.83,0.17c-0.88,0-1.44-0.59-1.44-1.48c0-0.89,0.61-1.54,1.56-1.54
			c0.31,0,0.59,0.08,0.73,0.15l-0.12,0.41c-0.13-0.07-0.32-0.14-0.61-0.14c-0.67,0-1.03,0.49-1.03,1.1c0,0.67,0.43,1.09,1.01,1.09
			c0.3,0,0.5-0.08,0.65-0.14L137.71,190.68z"/>
		<path d="M139.94,190.79l-0.04-0.37h-0.02c-0.16,0.23-0.47,0.43-0.89,0.43c-0.59,0-0.89-0.41-0.89-0.83c0-0.7,0.62-1.09,1.75-1.08
			v-0.06c0-0.24-0.07-0.67-0.66-0.67c-0.27,0-0.55,0.08-0.76,0.22l-0.12-0.35c0.24-0.16,0.59-0.26,0.95-0.26
			c0.89,0,1.1,0.61,1.1,1.19v1.09c0,0.25,0.01,0.5,0.05,0.7H139.94z M139.86,189.31c-0.58-0.01-1.23,0.09-1.23,0.65
			c0,0.34,0.23,0.5,0.5,0.5c0.38,0,0.62-0.24,0.7-0.49c0.02-0.05,0.03-0.11,0.03-0.17V189.31z"/>
		<path d="M141.22,188.79c0-0.34-0.01-0.64-0.02-0.91h0.46l0.02,0.57h0.02c0.13-0.39,0.45-0.64,0.8-0.64c0.06,0,0.1,0.01,0.15,0.02
			v0.5c-0.05-0.01-0.11-0.02-0.18-0.02c-0.37,0-0.64,0.28-0.71,0.68c-0.01,0.07-0.02,0.16-0.02,0.25v1.55h-0.52V188.79z"/>
		<path d="M143.21,188.79c0-0.34-0.01-0.64-0.02-0.91h0.46l0.02,0.57h0.02c0.13-0.39,0.45-0.64,0.8-0.64c0.06,0,0.1,0.01,0.15,0.02
			v0.5c-0.05-0.01-0.11-0.02-0.18-0.02c-0.37,0-0.64,0.28-0.71,0.68c-0.01,0.07-0.02,0.16-0.02,0.25v1.55h-0.52V188.79z"/>
		<path d="M145.78,187.07c0.01,0.18-0.13,0.32-0.34,0.32c-0.19,0-0.32-0.14-0.32-0.32c0-0.19,0.14-0.33,0.33-0.33
			C145.65,186.74,145.78,186.88,145.78,187.07z M145.19,190.79v-2.9h0.53v2.9H145.19z"/>
		<path d="M146.89,189.43c0.01,0.71,0.47,1.01,1,1.01c0.38,0,0.61-0.07,0.8-0.15l0.09,0.38c-0.19,0.08-0.5,0.18-0.97,0.18
			c-0.89,0-1.43-0.59-1.43-1.46s0.52-1.56,1.36-1.56c0.95,0,1.2,0.83,1.2,1.37c0,0.11-0.01,0.19-0.02,0.25H146.89z M148.44,189.05
			c0.01-0.34-0.14-0.86-0.73-0.86c-0.53,0-0.77,0.49-0.81,0.86H148.44z"/>
		<path d="M149.6,188.79c0-0.34-0.01-0.64-0.02-0.91h0.46l0.02,0.57h0.02c0.13-0.39,0.45-0.64,0.8-0.64c0.06,0,0.1,0.01,0.15,0.02
			v0.5c-0.05-0.01-0.11-0.02-0.18-0.02c-0.37,0-0.64,0.28-0.71,0.68c-0.01,0.07-0.02,0.16-0.02,0.25v1.55h-0.52V188.79z"/>
		<path d="M152.81,190.79c0.01-0.2,0.02-0.49,0.02-0.75v-3.51h0.52v1.82h0.01c0.19-0.32,0.52-0.53,0.99-0.53
			c0.72,0,1.23,0.6,1.22,1.48c0,1.04-0.65,1.55-1.3,1.55c-0.42,0-0.76-0.16-0.97-0.55h-0.02l-0.02,0.48H152.81z M153.36,189.62
			c0,0.07,0.01,0.13,0.02,0.19c0.1,0.37,0.41,0.62,0.79,0.62c0.55,0,0.88-0.45,0.88-1.12c0-0.58-0.3-1.08-0.86-1.08
			c-0.36,0-0.7,0.25-0.8,0.65c-0.01,0.06-0.03,0.13-0.03,0.22V189.62z"/>
		<path d="M158.88,189.31c0,1.07-0.74,1.54-1.45,1.54c-0.79,0-1.39-0.58-1.39-1.49c0-0.97,0.64-1.54,1.44-1.54
			C158.31,187.82,158.88,188.42,158.88,189.31z M156.57,189.34c0,0.64,0.37,1.12,0.88,1.12c0.5,0,0.88-0.47,0.88-1.13
			c0-0.49-0.25-1.12-0.87-1.12C156.84,188.21,156.57,188.79,156.57,189.34z"/>
		<path d="M161.15,190.79l-0.04-0.37h-0.02c-0.16,0.23-0.47,0.43-0.89,0.43c-0.59,0-0.89-0.41-0.89-0.83c0-0.7,0.62-1.09,1.75-1.08
			v-0.06c0-0.24-0.07-0.67-0.66-0.67c-0.27,0-0.55,0.08-0.76,0.22l-0.12-0.35c0.24-0.16,0.59-0.26,0.95-0.26
			c0.89,0,1.1,0.61,1.1,1.19v1.09c0,0.25,0.01,0.5,0.05,0.7H161.15z M161.07,189.31c-0.58-0.01-1.23,0.09-1.23,0.65
			c0,0.34,0.23,0.5,0.5,0.5c0.38,0,0.62-0.24,0.7-0.49c0.02-0.05,0.03-0.11,0.03-0.17V189.31z"/>
		<path d="M162.44,188.79c0-0.34-0.01-0.64-0.02-0.91h0.46l0.02,0.57h0.02c0.13-0.39,0.45-0.64,0.8-0.64c0.06,0,0.1,0.01,0.15,0.02
			v0.5c-0.05-0.01-0.11-0.02-0.18-0.02c-0.37,0-0.64,0.28-0.71,0.68c-0.01,0.07-0.02,0.16-0.02,0.25v1.55h-0.52V188.79z"/>
		<path d="M166.85,186.53v3.51c0,0.26,0.01,0.55,0.02,0.75h-0.47l-0.02-0.5h-0.01c-0.16,0.32-0.52,0.57-0.99,0.57
			c-0.7,0-1.24-0.59-1.24-1.48c-0.01-0.97,0.59-1.56,1.3-1.56c0.44,0,0.74,0.21,0.88,0.44h0.01v-1.73H166.85z M166.32,189.07
			c0-0.07-0.01-0.16-0.02-0.22c-0.08-0.34-0.37-0.61-0.76-0.61c-0.55,0-0.87,0.48-0.87,1.12c0,0.59,0.29,1.07,0.86,1.07
			c0.35,0,0.68-0.23,0.77-0.63c0.02-0.07,0.02-0.14,0.02-0.23V189.07z"/>
		<path d="M171.42,188.8c0,1.33-0.49,2.06-1.35,2.06c-0.76,0-1.28-0.71-1.29-2c0-1.31,0.56-2.03,1.36-2.03
			C170.95,186.82,171.42,187.56,171.42,188.8z M169.3,188.86c0,1.01,0.31,1.59,0.79,1.59c0.54,0,0.8-0.63,0.8-1.62
			c0-0.96-0.25-1.59-0.79-1.59C169.64,187.23,169.3,187.8,169.3,188.86z"/>
		<path d="M173.05,187.38h-0.01l-0.68,0.37l-0.1-0.4l0.85-0.46h0.45v3.9h-0.51V187.38z"/>
		<path d="M174.98,190.79v-0.32l0.41-0.4c1-0.95,1.45-1.45,1.45-2.04c0-0.4-0.19-0.76-0.77-0.76c-0.35,0-0.65,0.18-0.83,0.33
			l-0.17-0.37c0.27-0.23,0.65-0.4,1.1-0.4c0.84,0,1.19,0.58,1.19,1.13c0,0.72-0.52,1.3-1.34,2.09l-0.31,0.29v0.01h1.75v0.44H174.98z
			"/>
		<path d="M178.06,190.79v-0.32l0.41-0.4c1-0.95,1.45-1.45,1.45-2.04c0-0.4-0.19-0.76-0.77-0.76c-0.35,0-0.65,0.18-0.83,0.33
			l-0.17-0.37c0.27-0.23,0.65-0.4,1.1-0.4c0.84,0,1.19,0.58,1.19,1.13c0,0.72-0.52,1.3-1.34,2.09l-0.31,0.29v0.01h1.75v0.44H178.06z
			"/>
		<path d="M181.14,190.79v-0.32l0.41-0.4c1-0.95,1.45-1.45,1.45-2.04c0-0.4-0.19-0.76-0.77-0.76c-0.35,0-0.65,0.18-0.83,0.33
			l-0.17-0.37c0.27-0.23,0.65-0.4,1.1-0.4c0.84,0,1.19,0.58,1.19,1.13c0,0.72-0.52,1.3-1.34,2.09l-0.31,0.29v0.01h1.75v0.44H181.14z
			"/>
		<path d="M185.85,190.79v-1.06h-1.81v-0.35l1.74-2.49h0.57v2.42h0.55v0.41h-0.55v1.06H185.85z M185.85,189.31v-1.3
			c0-0.2,0.01-0.41,0.02-0.61h-0.02c-0.12,0.23-0.22,0.4-0.32,0.58l-0.95,1.33v0.01H185.85z"/>
	</g>
</g>
<g id="buck_convertor">
	<g id="outside_00000147205483336723248260000011909239512137373583_">
		
			<rect id="area_00000093171429599843599190000010948764874241458567_" x="72.36" y="108.54" fill="#FFFFFF" stroke="#000000" stroke-miterlimit="10" width="144.74" height="66.39"/>
		<g>
			<path d="M70.9,153.94h-0.32l-0.4-0.41c-0.95-1-1.45-1.45-2.04-1.45c-0.4,0-0.76,0.19-0.76,0.77c0,0.35,0.18,0.65,0.33,0.83
				l-0.37,0.17c-0.23-0.27-0.4-0.65-0.4-1.1c0-0.84,0.58-1.19,1.13-1.19c0.72,0,1.3,0.52,2.09,1.34l0.29,0.31h0.01v-1.75h0.44
				V153.94z"/>
			<path d="M70.29,150.74c0.1-0.15,0.25-0.5,0.25-0.86c0-0.68-0.43-0.89-0.76-0.88C69.23,149,69,149.49,69,150v0.29h-0.4V150
				c0-0.38-0.2-0.87-0.66-0.87c-0.31,0-0.59,0.2-0.59,0.68c0,0.31,0.14,0.61,0.26,0.78l-0.38,0.14c-0.15-0.2-0.3-0.6-0.3-1.02
				c0-0.77,0.46-1.12,0.93-1.12c0.4,0,0.74,0.24,0.92,0.72h0.01c0.1-0.48,0.46-0.87,1-0.87c0.62,0,1.17,0.49,1.17,1.42
				c0,0.44-0.14,0.82-0.26,1.01L70.29,150.74z"/>
			<path d="M70.58,147.74c-0.22,0-0.38-0.15-0.38-0.36c0-0.21,0.16-0.35,0.38-0.35c0.22,0,0.38,0.14,0.38,0.36
				C70.96,147.6,70.8,147.74,70.58,147.74z"/>
			<path d="M70.9,144.91h-1.06v1.81h-0.35L67,144.98v-0.57h2.42v-0.55h0.41v0.55h1.06V144.91z M69.42,144.91h-1.3
				c-0.2,0-0.41-0.01-0.61-0.02v0.02c0.23,0.12,0.4,0.22,0.58,0.32l1.33,0.95h0.01V144.91z"/>
			<path d="M70.9,143.47h-0.32l-0.4-0.41c-0.95-1-1.45-1.45-2.04-1.45c-0.4,0-0.76,0.19-0.76,0.77c0,0.35,0.18,0.65,0.33,0.83
				l-0.37,0.17c-0.23-0.27-0.4-0.65-0.4-1.1c0-0.84,0.58-1.19,1.13-1.19c0.72,0,1.3,0.52,2.09,1.34l0.29,0.31h0.01v-1.75h0.44
				V143.47z"/>
			<path d="M68.78,138.95c-0.3,0-0.55,0.01-0.79,0.02v-0.46l0.47-0.02v-0.02c-0.28-0.16-0.53-0.43-0.53-0.91
				c0-0.4,0.24-0.7,0.58-0.82v-0.01c-0.16-0.09-0.29-0.2-0.38-0.32c-0.13-0.17-0.2-0.37-0.2-0.64c0-0.38,0.25-0.95,1.26-0.95h1.71
				v0.52h-1.64c-0.56,0-0.89,0.2-0.89,0.63c0,0.3,0.22,0.53,0.48,0.62c0.07,0.02,0.17,0.04,0.26,0.04h1.79v0.52h-1.74
				c-0.46,0-0.8,0.2-0.8,0.61c0,0.33,0.26,0.57,0.53,0.65c0.08,0.03,0.17,0.04,0.26,0.04h1.75v0.52H68.78z"/>
			<path d="M68.78,133.94c-0.3,0-0.55,0.01-0.79,0.02v-0.46l0.47-0.02v-0.02c-0.28-0.16-0.53-0.43-0.53-0.91
				c0-0.4,0.24-0.7,0.58-0.82v-0.01c-0.16-0.09-0.29-0.2-0.38-0.32c-0.13-0.17-0.2-0.37-0.2-0.64c0-0.38,0.25-0.95,1.26-0.95h1.71
				v0.52h-1.64c-0.56,0-0.89,0.2-0.89,0.63c0,0.3,0.22,0.53,0.48,0.62c0.07,0.02,0.17,0.04,0.26,0.04h1.79v0.52h-1.74
				c-0.46,0-0.8,0.2-0.8,0.61c0,0.33,0.26,0.57,0.53,0.65c0.08,0.03,0.17,0.04,0.26,0.04h1.75v0.52H68.78z"/>
		</g>
		<g>
			<path d="M128.02,177.23h-1.49l-0.15,1c0.09-0.01,0.17-0.02,0.32-0.02c0.3,0,0.6,0.07,0.84,0.21c0.31,0.17,0.56,0.51,0.56,1
				c0,0.76-0.61,1.33-1.45,1.33c-0.43,0-0.79-0.12-0.97-0.24l0.13-0.4c0.16,0.1,0.48,0.22,0.83,0.22c0.5,0,0.92-0.32,0.92-0.85
				c-0.01-0.5-0.34-0.86-1.12-0.86c-0.22,0-0.4,0.02-0.54,0.04l0.25-1.87h1.87V177.23z"/>
			<path d="M129.92,177.28h-0.01l-0.68,0.37l-0.1-0.4l0.85-0.46h0.45v3.9h-0.51V177.28z"/>
			<path d="M131.89,180.38c0-0.22,0.15-0.38,0.36-0.38c0.21,0,0.35,0.16,0.35,0.38c0,0.22-0.14,0.38-0.36,0.38
				C132.04,180.75,131.89,180.59,131.89,180.38z"/>
			<path d="M135.68,178.7c0,1.33-0.49,2.06-1.35,2.06c-0.76,0-1.28-0.71-1.29-2c0-1.31,0.56-2.03,1.36-2.03
				C135.22,176.72,135.68,177.46,135.68,178.7z M133.57,178.76c0,1.01,0.31,1.59,0.79,1.59c0.54,0,0.8-0.63,0.8-1.62
				c0-0.96-0.25-1.59-0.79-1.59C133.9,177.13,133.57,177.7,133.57,178.76z"/>
			<path d="M138.4,177.16c-0.11-0.01-0.25,0-0.4,0.02c-0.83,0.14-1.27,0.74-1.35,1.39h0.02c0.19-0.25,0.51-0.45,0.94-0.45
				c0.69,0,1.18,0.5,1.18,1.26c0,0.71-0.49,1.37-1.3,1.37c-0.83,0-1.38-0.65-1.38-1.66c0-0.77,0.28-1.37,0.66-1.76
				c0.32-0.32,0.76-0.52,1.25-0.58c0.16-0.02,0.29-0.03,0.38-0.03V177.16z M138.25,179.41c0-0.56-0.32-0.89-0.8-0.89
				c-0.32,0-0.61,0.2-0.76,0.48c-0.04,0.06-0.06,0.14-0.06,0.23c0.01,0.64,0.31,1.12,0.86,1.12
				C137.94,180.35,138.25,179.97,138.25,179.41z"/>
			<path d="M140.69,178.57c0-0.3-0.01-0.55-0.02-0.79h0.46l0.02,0.47h0.02c0.16-0.28,0.43-0.53,0.91-0.53c0.4,0,0.7,0.24,0.82,0.58
				h0.01c0.09-0.16,0.2-0.29,0.32-0.38c0.17-0.13,0.37-0.2,0.64-0.2c0.38,0,0.95,0.25,0.95,1.26v1.71h-0.52v-1.64
				c0-0.56-0.2-0.89-0.63-0.89c-0.3,0-0.53,0.22-0.62,0.48c-0.02,0.07-0.04,0.17-0.04,0.26v1.79h-0.52v-1.74
				c0-0.46-0.2-0.8-0.61-0.8c-0.33,0-0.57,0.26-0.65,0.53c-0.03,0.08-0.04,0.17-0.04,0.26v1.75h-0.52V178.57z"/>
			<path d="M145.69,178.57c0-0.3-0.01-0.55-0.02-0.79h0.46l0.02,0.47h0.02c0.16-0.28,0.43-0.53,0.91-0.53c0.4,0,0.7,0.24,0.82,0.58
				h0.01c0.09-0.16,0.2-0.29,0.32-0.38c0.17-0.13,0.37-0.2,0.64-0.2c0.38,0,0.95,0.25,0.95,1.26v1.71h-0.52v-1.64
				c0-0.56-0.2-0.89-0.63-0.89c-0.3,0-0.53,0.22-0.62,0.48c-0.02,0.07-0.04,0.17-0.04,0.26v1.79h-0.52v-1.74
				c0-0.46-0.2-0.8-0.61-0.8c-0.33,0-0.57,0.26-0.65,0.53c-0.03,0.08-0.04,0.17-0.04,0.26v1.75h-0.52V178.57z"/>
		</g>
	</g>
	<g id="inside_00000088115590752012847330000014671068467806635963_">
		<g id="buck_sinks">
			
				<rect id="hole_perimeter_00000145745806519739475410000017029250181695432365_" x="80.87" y="117.04" fill="none" stroke="#FFF200" stroke-miterlimit="10" width="127.73" height="49.38"/>
			<circle fill="#FFFFFF" stroke="#ED1C24" stroke-miterlimit="10" cx="208.6" cy="166.42" r="4.54"/>
			<circle fill="#FFFFFF" stroke="#ED1C24" stroke-miterlimit="10" cx="80.87" cy="166.42" r="4.54"/>
			<circle fill="#FFFFFF" stroke="#ED1C24" stroke-miterlimit="10" cx="80.87" cy="117.04" r="4.54"/>
			<circle fill="#FFFFFF" stroke="#ED1C24" stroke-miterlimit="10" cx="208.6" cy="117.04" r="4.54"/>
		</g>
		<g>
			<path d="M86.84,157.84v1.69h1.96v-1.69h0.53v4.04h-0.53v-1.9h-1.96v1.9h-0.52v-4.04H86.84z"/>
			<path d="M92.84,160.41c0,1.07-0.74,1.54-1.45,1.54c-0.79,0-1.39-0.58-1.39-1.49c0-0.97,0.64-1.54,1.44-1.54
				C92.27,158.92,92.84,159.52,92.84,160.41z M90.53,160.44c0,0.64,0.37,1.12,0.88,1.12c0.5,0,0.88-0.47,0.88-1.13
				c0-0.49-0.25-1.12-0.87-1.12C90.8,159.31,90.53,159.89,90.53,160.44z"/>
			<path d="M93.5,157.63h0.53v4.26H93.5V157.63z"/>
			<path d="M95.21,160.53c0.01,0.71,0.47,1.01,1,1.01c0.38,0,0.61-0.07,0.8-0.15l0.09,0.38c-0.19,0.08-0.5,0.18-0.97,0.18
				c-0.89,0-1.43-0.59-1.43-1.46s0.52-1.56,1.36-1.56c0.95,0,1.2,0.83,1.2,1.37c0,0.11-0.01,0.19-0.02,0.25H95.21z M96.76,160.15
				c0.01-0.34-0.14-0.86-0.73-0.86c-0.53,0-0.77,0.49-0.81,0.86H96.76z"/>
			<path d="M99.21,157.9c0.32-0.05,0.7-0.08,1.11-0.08c0.75,0,1.28,0.17,1.64,0.5c0.36,0.33,0.57,0.8,0.57,1.45
				c0,0.66-0.2,1.2-0.58,1.57c-0.38,0.38-1,0.58-1.79,0.58c-0.37,0-0.68-0.02-0.95-0.05V157.9z M99.74,161.47
				c0.13,0.02,0.32,0.03,0.53,0.03c1.12,0,1.72-0.62,1.72-1.71c0.01-0.95-0.53-1.56-1.64-1.56c-0.27,0-0.47,0.02-0.61,0.05V161.47z"
				/>
			<path d="M104.27,159.87v-0.36h3.09v0.36H104.27z M104.27,161.04v-0.36h3.09v0.36H104.27z"/>
			<path d="M109.27,161.28c0.15,0.1,0.5,0.25,0.86,0.25c0.68,0,0.89-0.43,0.88-0.76c-0.01-0.55-0.5-0.78-1.01-0.78h-0.29v-0.4h0.29
				c0.38,0,0.87-0.2,0.87-0.66c0-0.31-0.2-0.59-0.68-0.59c-0.31,0-0.61,0.14-0.78,0.26l-0.14-0.38c0.2-0.15,0.6-0.3,1.02-0.3
				c0.77,0,1.12,0.46,1.12,0.93c0,0.4-0.24,0.74-0.72,0.92v0.01c0.48,0.1,0.87,0.46,0.87,1c0,0.62-0.49,1.17-1.42,1.17
				c-0.44,0-0.82-0.14-1.01-0.26L109.27,161.28z"/>
			<path d="M112.27,161.57c0-0.22,0.15-0.38,0.36-0.38c0.21,0,0.35,0.16,0.35,0.38c0,0.22-0.14,0.38-0.36,0.38
				C112.41,161.95,112.27,161.79,112.27,161.57z"/>
			<path d="M113.47,161.89v-0.32l0.41-0.4c1-0.95,1.45-1.45,1.45-2.04c0-0.4-0.19-0.76-0.77-0.76c-0.35,0-0.65,0.18-0.83,0.33
				l-0.17-0.37c0.27-0.23,0.65-0.4,1.1-0.4c0.84,0,1.19,0.58,1.19,1.13c0,0.72-0.52,1.3-1.34,2.09l-0.31,0.29v0.01h1.75v0.44H113.47
				z"/>
			<path d="M116.71,159.77c0-0.3-0.01-0.55-0.02-0.79h0.46l0.02,0.47h0.02c0.16-0.28,0.43-0.53,0.91-0.53c0.4,0,0.7,0.24,0.82,0.58
				h0.01c0.09-0.16,0.2-0.29,0.32-0.38c0.17-0.13,0.37-0.2,0.64-0.2c0.38,0,0.95,0.25,0.95,1.26v1.71h-0.52v-1.64
				c0-0.56-0.2-0.89-0.63-0.89c-0.3,0-0.53,0.22-0.62,0.48c-0.02,0.07-0.04,0.17-0.04,0.26v1.79h-0.52v-1.74
				c0-0.46-0.2-0.8-0.61-0.8c-0.33,0-0.57,0.26-0.65,0.53c-0.03,0.08-0.04,0.17-0.04,0.26v1.75h-0.52V159.77z"/>
			<path d="M121.72,159.77c0-0.3-0.01-0.55-0.02-0.79h0.46l0.02,0.47h0.02c0.16-0.28,0.43-0.53,0.91-0.53c0.4,0,0.7,0.24,0.82,0.58
				h0.01c0.09-0.16,0.2-0.29,0.32-0.38c0.17-0.13,0.37-0.2,0.64-0.2c0.38,0,0.95,0.25,0.95,1.26v1.71h-0.52v-1.64
				c0-0.56-0.2-0.89-0.63-0.89c-0.3,0-0.53,0.22-0.62,0.48c-0.02,0.07-0.04,0.17-0.04,0.26v1.79h-0.52v-1.74
				c0-0.46-0.2-0.8-0.61-0.8c-0.33,0-0.57,0.26-0.65,0.53c-0.03,0.08-0.04,0.17-0.04,0.26v1.75h-0.52V159.77z"/>
		</g>
		<g>
			<path d="M203.79,151.9v0.01l0.37,0.68l-0.4,0.1l-0.46-0.85v-0.45h3.9v0.51H203.79z"/>
			<path d="M203.3,147.44h0.35l3.55,1.7v0.55l-3.45-1.69h-0.01v1.91h-0.44V147.44z"/>
			<path d="M206.89,146.85c-0.22,0-0.38-0.15-0.38-0.36c0-0.21,0.16-0.35,0.38-0.35c0.22,0,0.38,0.14,0.38,0.36
				C207.27,146.71,207.1,146.85,206.89,146.85z"/>
			<path d="M207.2,144.02h-1.06v1.81h-0.35l-2.49-1.74v-0.57h2.42v-0.55h0.41v0.55h1.06V144.02z M205.73,144.02h-1.3
				c-0.2,0-0.41-0.01-0.61-0.02v0.02c0.23,0.12,0.4,0.22,0.58,0.32l1.33,0.95h0.01V144.02z"/>
			<path d="M207.2,142.57h-0.32l-0.4-0.41c-0.95-1-1.45-1.45-2.04-1.45c-0.4,0-0.76,0.19-0.76,0.77c0,0.35,0.18,0.65,0.33,0.83
				l-0.37,0.17c-0.23-0.27-0.4-0.65-0.4-1.1c0-0.84,0.58-1.19,1.13-1.19c0.72,0,1.3,0.52,2.09,1.34l0.29,0.31h0.01v-1.75h0.44
				V142.57z"/>
			<path d="M205.08,139.33c-0.3,0-0.55,0.01-0.79,0.02v-0.46l0.47-0.02v-0.02c-0.28-0.16-0.53-0.43-0.53-0.91
				c0-0.4,0.24-0.7,0.58-0.82v-0.01c-0.16-0.09-0.29-0.2-0.38-0.32c-0.13-0.17-0.2-0.37-0.2-0.64c0-0.38,0.25-0.95,1.26-0.95h1.71
				v0.52h-1.64c-0.56,0-0.89,0.2-0.89,0.63c0,0.3,0.22,0.53,0.48,0.62c0.07,0.02,0.17,0.04,0.26,0.04h1.79v0.52h-1.74
				c-0.46,0-0.8,0.2-0.8,0.61c0,0.33,0.26,0.57,0.53,0.65c0.08,0.03,0.17,0.04,0.26,0.04h1.75v0.52H205.08z"/>
			<path d="M205.08,134.32c-0.3,0-0.55,0.01-0.79,0.02v-0.46l0.47-0.02v-0.02c-0.28-0.16-0.53-0.43-0.53-0.91
				c0-0.4,0.24-0.7,0.58-0.82v-0.01c-0.16-0.09-0.29-0.2-0.38-0.32c-0.13-0.17-0.2-0.37-0.2-0.64c0-0.38,0.25-0.95,1.26-0.95h1.71
				v0.52h-1.64c-0.56,0-0.89,0.2-0.89,0.63c0,0.3,0.22,0.53,0.48,0.62c0.07,0.02,0.17,0.04,0.26,0.04h1.79v0.52h-1.74
				c-0.46,0-0.8,0.2-0.8,0.61c0,0.33,0.26,0.57,0.53,0.65c0.08,0.03,0.17,0.04,0.26,0.04h1.75v0.52H205.08z"/>
		</g>
		<g>
			<path d="M127.33,122.44v-1.06h-1.81v-0.35l1.74-2.49h0.57v2.42h0.55v0.41h-0.55v1.06H127.33z M127.33,120.96v-1.3
				c0-0.2,0.01-0.41,0.02-0.61h-0.02c-0.12,0.23-0.22,0.4-0.32,0.58l-0.95,1.33v0.01H127.33z"/>
			<path d="M131.1,118.98h-1.49l-0.15,1c0.09-0.01,0.17-0.02,0.32-0.02c0.3,0,0.6,0.07,0.84,0.21c0.31,0.17,0.56,0.51,0.56,1
				c0,0.76-0.61,1.33-1.45,1.33c-0.43,0-0.79-0.12-0.97-0.24l0.13-0.4c0.16,0.1,0.48,0.22,0.83,0.22c0.5,0,0.92-0.32,0.92-0.85
				c-0.01-0.5-0.34-0.86-1.12-0.86c-0.22,0-0.4,0.02-0.54,0.04l0.25-1.87h1.87V118.98z"/>
			<path d="M131.89,122.12c0-0.22,0.15-0.38,0.36-0.38c0.21,0,0.35,0.16,0.35,0.38c0,0.22-0.14,0.38-0.36,0.38
				C132.04,122.5,131.89,122.34,131.89,122.12z"/>
			<path d="M135.68,120.45c0,1.33-0.49,2.06-1.35,2.06c-0.76,0-1.28-0.71-1.29-2c0-1.31,0.56-2.03,1.36-2.03
				C135.22,118.47,135.68,119.2,135.68,120.45z M133.57,120.51c0,1.01,0.31,1.59,0.79,1.59c0.54,0,0.8-0.63,0.8-1.62
				c0-0.96-0.25-1.59-0.79-1.59C133.9,118.88,133.57,119.44,133.57,120.51z"/>
			<path d="M138.5,118.98h-1.49l-0.15,1c0.09-0.01,0.17-0.02,0.32-0.02c0.3,0,0.6,0.07,0.84,0.21c0.31,0.17,0.56,0.51,0.56,1
				c0,0.76-0.61,1.33-1.45,1.33c-0.43,0-0.79-0.12-0.97-0.24l0.13-0.4c0.16,0.1,0.48,0.22,0.83,0.22c0.5,0,0.92-0.32,0.92-0.85
				c-0.01-0.5-0.34-0.86-1.12-0.86c-0.22,0-0.4,0.02-0.54,0.04l0.25-1.87h1.87V118.98z"/>
			<path d="M140.69,120.32c0-0.3-0.01-0.55-0.02-0.79h0.46l0.02,0.47h0.02c0.16-0.28,0.43-0.53,0.91-0.53c0.4,0,0.7,0.24,0.82,0.58
				h0.01c0.09-0.16,0.2-0.29,0.32-0.38c0.17-0.13,0.37-0.2,0.64-0.2c0.38,0,0.95,0.25,0.95,1.26v1.71h-0.52v-1.64
				c0-0.56-0.2-0.89-0.63-0.89c-0.3,0-0.53,0.22-0.62,0.48c-0.02,0.07-0.04,0.17-0.04,0.26v1.79h-0.52v-1.74
				c0-0.46-0.2-0.8-0.61-0.8c-0.33,0-0.57,0.26-0.65,0.53c-0.03,0.08-0.04,0.17-0.04,0.26v1.75h-0.52V120.32z"/>
			<path d="M145.69,120.32c0-0.3-0.01-0.55-0.02-0.79h0.46l0.02,0.47h0.02c0.16-0.28,0.43-0.53,0.91-0.53c0.4,0,0.7,0.24,0.82,0.58
				h0.01c0.09-0.16,0.2-0.29,0.32-0.38c0.17-0.13,0.37-0.2,0.64-0.2c0.38,0,0.95,0.25,0.95,1.26v1.71h-0.52v-1.64
				c0-0.56-0.2-0.89-0.63-0.89c-0.3,0-0.53,0.22-0.62,0.48c-0.02,0.07-0.04,0.17-0.04,0.26v1.79h-0.52v-1.74
				c0-0.46-0.2-0.8-0.61-0.8c-0.33,0-0.57,0.26-0.65,0.53c-0.03,0.08-0.04,0.17-0.04,0.26v1.75h-0.52V120.32z"/>
		</g>
	</g>
	<g>
		<path d="M118.45,139.02c0.34-0.07,0.88-0.13,1.43-0.13c0.78,0,1.29,0.13,1.67,0.44c0.31,0.23,0.5,0.59,0.5,1.07
			c0,0.59-0.39,1.1-1.03,1.33v0.02c0.58,0.14,1.25,0.62,1.25,1.52c0,0.52-0.21,0.92-0.51,1.22c-0.42,0.39-1.11,0.57-2.1,0.57
			c-0.54,0-0.95-0.04-1.22-0.07V139.02z M119.23,141.51h0.71c0.83,0,1.31-0.43,1.31-1.02c0-0.71-0.54-0.99-1.33-0.99
			c-0.36,0-0.57,0.03-0.69,0.05V141.51z M119.23,144.41c0.15,0.03,0.38,0.04,0.66,0.04c0.81,0,1.56-0.3,1.56-1.18
			c0-0.83-0.71-1.17-1.57-1.17h-0.65V144.41z"/>
		<path d="M126.94,143.82c0,0.45,0.01,0.85,0.04,1.19h-0.7l-0.04-0.71h-0.02c-0.21,0.35-0.67,0.81-1.44,0.81
			c-0.68,0-1.5-0.38-1.5-1.91v-2.55h0.79v2.41c0,0.83,0.25,1.39,0.97,1.39c0.53,0,0.9-0.37,1.04-0.72c0.04-0.12,0.07-0.26,0.07-0.41
			v-2.67h0.79V143.82z"/>
		<path d="M131.36,144.85c-0.21,0.11-0.67,0.25-1.25,0.25c-1.31,0-2.17-0.89-2.17-2.22c0-1.34,0.92-2.31,2.34-2.31
			c0.47,0,0.88,0.12,1.1,0.23l-0.18,0.61c-0.19-0.11-0.49-0.21-0.92-0.21c-1,0-1.54,0.74-1.54,1.65c0,1.01,0.65,1.63,1.51,1.63
			c0.45,0,0.75-0.12,0.97-0.22L131.36,144.85z"/>
		<path d="M133.07,142.65h0.02c0.11-0.15,0.26-0.34,0.39-0.5l1.28-1.5h0.95l-1.68,1.79l1.92,2.57h-0.96l-1.5-2.09l-0.41,0.45v1.64
			h-0.78v-6.39h0.78V142.65z"/>
		<path d="M141.52,144.85c-0.21,0.11-0.67,0.25-1.25,0.25c-1.31,0-2.17-0.89-2.17-2.22c0-1.34,0.92-2.31,2.34-2.31
			c0.47,0,0.88,0.12,1.1,0.23l-0.18,0.61c-0.19-0.11-0.49-0.21-0.92-0.21c-1,0-1.54,0.74-1.54,1.65c0,1.01,0.65,1.63,1.51,1.63
			c0.45,0,0.75-0.12,0.97-0.22L141.52,144.85z"/>
		<path d="M146.34,142.79c0,1.61-1.12,2.31-2.17,2.31c-1.18,0-2.09-0.86-2.09-2.24c0-1.46,0.95-2.31,2.16-2.31
			C145.49,140.55,146.34,141.46,146.34,142.79z M142.88,142.84c0,0.95,0.55,1.67,1.32,1.67c0.76,0,1.32-0.71,1.32-1.69
			c0-0.74-0.37-1.67-1.31-1.67C143.28,141.15,142.88,142.01,142.88,142.84z"/>
		<path d="M147.33,141.83c0-0.45-0.01-0.82-0.04-1.18h0.7l0.04,0.72h0.02c0.22-0.41,0.72-0.82,1.44-0.82c0.6,0,1.54,0.36,1.54,1.85
			v2.6h-0.79v-2.51c0-0.7-0.26-1.29-1.01-1.29c-0.52,0-0.93,0.37-1.06,0.81c-0.04,0.1-0.05,0.23-0.05,0.37v2.62h-0.79V141.83z"/>
		<path d="M152.52,140.65l0.85,2.45c0.14,0.4,0.26,0.76,0.35,1.12h0.03c0.1-0.36,0.23-0.72,0.37-1.12l0.85-2.45h0.83l-1.71,4.36
			h-0.76l-1.66-4.36H152.52z"/>
		<path d="M156.89,142.97c0.02,1.07,0.7,1.51,1.49,1.51c0.57,0,0.91-0.1,1.21-0.23l0.13,0.57c-0.28,0.13-0.76,0.27-1.45,0.27
			c-1.34,0-2.14-0.88-2.14-2.2c0-1.31,0.77-2.35,2.04-2.35c1.42,0,1.8,1.25,1.8,2.05c0,0.16-0.02,0.29-0.03,0.37H156.89z
			 M159.22,142.41c0.01-0.5-0.21-1.29-1.1-1.29c-0.8,0-1.15,0.74-1.22,1.29H159.22z"/>
		<path d="M160.96,142.01c0-0.51-0.01-0.95-0.04-1.36h0.69l0.03,0.86h0.04c0.2-0.59,0.68-0.95,1.21-0.95c0.09,0,0.15,0.01,0.23,0.03
			v0.75c-0.08-0.02-0.16-0.03-0.27-0.03c-0.56,0-0.95,0.42-1.06,1.02c-0.02,0.11-0.04,0.23-0.04,0.37v2.32h-0.78V142.01z"/>
		<path d="M165.07,139.4v1.25h1.13v0.6h-1.13v2.35c0,0.54,0.15,0.85,0.59,0.85c0.21,0,0.36-0.03,0.46-0.05l0.04,0.59
			c-0.15,0.06-0.4,0.11-0.7,0.11c-0.37,0-0.67-0.12-0.85-0.33c-0.23-0.23-0.31-0.62-0.31-1.13v-2.38h-0.68v-0.6h0.68v-1.04
			L165.07,139.4z"/>
		<path d="M170.99,142.79c0,1.61-1.12,2.31-2.17,2.31c-1.18,0-2.09-0.86-2.09-2.24c0-1.46,0.95-2.31,2.16-2.31
			C170.14,140.55,170.99,141.46,170.99,142.79z M167.53,142.84c0,0.95,0.55,1.67,1.32,1.67c0.76,0,1.32-0.71,1.32-1.69
			c0-0.74-0.37-1.67-1.31-1.67C167.94,141.15,167.53,142.01,167.53,142.84z"/>
		<path d="M171.99,142.01c0-0.51-0.01-0.95-0.04-1.36h0.69l0.03,0.86h0.04c0.2-0.59,0.68-0.95,1.21-0.95c0.09,0,0.15,0.01,0.22,0.03
			v0.75c-0.08-0.02-0.16-0.03-0.27-0.03c-0.56,0-0.95,0.42-1.06,1.02c-0.02,0.11-0.04,0.23-0.04,0.37v2.32h-0.78V142.01z"/>
	</g>
</g>
<g id="Featherboard">
	<g id="outside">
		
			<rect id="area" x="112.17" y="-5.8" transform="matrix(6.123234e-17 -1 1 6.123234e-17 78.3701 210.7638)" fill="#FFFFFF" stroke="#000000" stroke-miterlimit="10" width="64.8" height="144"/>
		<g>
			<path d="M127.77,27.94h-1.49l-0.15,1c0.09-0.01,0.17-0.02,0.32-0.02c0.3,0,0.6,0.07,0.84,0.21c0.31,0.17,0.56,0.51,0.56,1
				c0,0.76-0.61,1.33-1.45,1.33c-0.43,0-0.79-0.12-0.97-0.24l0.13-0.4c0.16,0.1,0.48,0.22,0.83,0.22c0.5,0,0.92-0.32,0.92-0.85
				c-0.01-0.5-0.34-0.86-1.12-0.86c-0.22,0-0.4,0.02-0.54,0.04l0.25-1.87h1.87V27.94z"/>
			<path d="M131.11,29.4c0,1.33-0.49,2.06-1.35,2.06c-0.76,0-1.28-0.71-1.29-2c0-1.31,0.56-2.03,1.36-2.03
				C130.64,27.43,131.11,28.16,131.11,29.4z M129,29.46c0,1.01,0.31,1.59,0.79,1.59c0.54,0,0.8-0.63,0.8-1.62
				c0-0.96-0.25-1.59-0.79-1.59C129.33,27.84,129,28.4,129,29.46z"/>
			<path d="M131.64,31.08c0-0.22,0.15-0.38,0.36-0.38c0.21,0,0.35,0.16,0.35,0.38c0,0.22-0.14,0.38-0.36,0.38
				C131.79,31.46,131.64,31.3,131.64,31.08z"/>
			<path d="M132.79,30.41c0-0.49,0.29-0.84,0.77-1.04l-0.01-0.02c-0.43-0.2-0.62-0.54-0.62-0.88c0-0.62,0.52-1.04,1.21-1.04
				c0.76,0,1.13,0.47,1.13,0.96c0,0.33-0.16,0.68-0.64,0.91v0.02c0.49,0.19,0.79,0.53,0.79,1.01c0,0.68-0.58,1.13-1.33,1.13
				C133.29,31.46,132.79,30.98,132.79,30.41z M134.89,30.38c0-0.47-0.33-0.7-0.86-0.85c-0.46,0.13-0.7,0.43-0.7,0.8
				c-0.02,0.4,0.28,0.74,0.78,0.74C134.59,31.08,134.89,30.78,134.89,30.38z M133.44,28.43c0,0.39,0.29,0.6,0.74,0.72
				c0.34-0.11,0.59-0.35,0.59-0.71c0-0.31-0.19-0.64-0.66-0.64C133.68,27.81,133.44,28.1,133.44,28.43z"/>
			<path d="M137.36,29.28c0-0.3-0.01-0.55-0.02-0.79h0.46l0.02,0.47h0.02c0.16-0.28,0.43-0.53,0.91-0.53c0.4,0,0.7,0.24,0.82,0.58
				h0.01c0.09-0.16,0.2-0.29,0.32-0.38c0.17-0.13,0.37-0.2,0.64-0.2c0.38,0,0.95,0.25,0.95,1.26v1.71h-0.52v-1.64
				c0-0.56-0.2-0.89-0.63-0.89c-0.3,0-0.53,0.22-0.62,0.48c-0.02,0.07-0.04,0.17-0.04,0.26v1.79h-0.52v-1.74
				c0-0.46-0.2-0.8-0.61-0.8c-0.33,0-0.57,0.26-0.65,0.53c-0.03,0.08-0.04,0.17-0.04,0.26v1.75h-0.52V29.28z"/>
			<path d="M142.36,29.28c0-0.3-0.01-0.55-0.02-0.79h0.46l0.02,0.47h0.02c0.16-0.28,0.43-0.53,0.91-0.53c0.4,0,0.7,0.24,0.82,0.58
				h0.01c0.09-0.16,0.2-0.29,0.32-0.38c0.17-0.13,0.37-0.2,0.64-0.2c0.38,0,0.95,0.25,0.95,1.26v1.71h-0.52v-1.64
				c0-0.56-0.2-0.89-0.63-0.89c-0.3,0-0.53,0.22-0.62,0.48c-0.02,0.07-0.04,0.17-0.04,0.26v1.79h-0.52v-1.74
				c0-0.46-0.2-0.8-0.61-0.8c-0.33,0-0.57,0.26-0.65,0.53c-0.03,0.08-0.04,0.17-0.04,0.26v1.75h-0.52V29.28z"/>
			<path d="M149.78,27.23c-0.44,0.59-0.76,1.37-0.76,2.45c0,1.07,0.33,1.83,0.76,2.43h-0.41c-0.38-0.5-0.79-1.27-0.79-2.43
				c0.01-1.18,0.41-1.95,0.79-2.45H149.78z"/>
			<path d="M150.18,31.4v-0.32l0.41-0.4c1-0.95,1.45-1.45,1.45-2.04c0-0.4-0.19-0.76-0.77-0.76c-0.35,0-0.65,0.18-0.83,0.33
				l-0.17-0.37c0.27-0.23,0.65-0.4,1.1-0.4c0.84,0,1.19,0.58,1.19,1.13c0,0.72-0.52,1.3-1.34,2.09l-0.31,0.29v0.01h1.75v0.44H150.18
				z"/>
			<path d="M153.3,31.08c0-0.22,0.15-0.38,0.36-0.38c0.21,0,0.35,0.16,0.35,0.38c0,0.22-0.14,0.38-0.36,0.38
				C153.44,31.46,153.3,31.3,153.3,31.08z"/>
			<path d="M157.09,29.4c0,1.33-0.49,2.06-1.35,2.06c-0.76,0-1.28-0.71-1.29-2c0-1.31,0.56-2.03,1.36-2.03
				C156.62,27.43,157.09,28.16,157.09,29.4z M154.97,29.46c0,1.01,0.31,1.59,0.79,1.59c0.54,0,0.8-0.63,0.8-1.62
				c0-0.96-0.25-1.59-0.79-1.59C155.31,27.84,154.97,28.4,154.97,29.46z"/>
			<path d="M159.6,27.68c0.01,0.18-0.13,0.32-0.34,0.32c-0.19,0-0.32-0.14-0.32-0.32c0-0.19,0.14-0.33,0.33-0.33
				C159.48,27.35,159.6,27.49,159.6,27.68z M159.01,31.4v-2.9h0.53v2.9H159.01z"/>
			<path d="M160.42,29.28c0-0.3-0.01-0.55-0.02-0.79h0.47l0.03,0.48h0.01c0.14-0.28,0.48-0.55,0.96-0.55c0.4,0,1.03,0.24,1.03,1.24
				v1.73h-0.53v-1.67c0-0.47-0.17-0.86-0.67-0.86c-0.35,0-0.62,0.25-0.71,0.54c-0.02,0.07-0.04,0.16-0.04,0.25v1.75h-0.53V29.28z"/>
			<path d="M163.43,32.12c0.43-0.59,0.76-1.37,0.76-2.45c0-1.07-0.32-1.84-0.76-2.43h0.41c0.38,0.49,0.79,1.26,0.79,2.44
				c0,1.18-0.4,1.94-0.79,2.45H163.43z"/>
		</g>
		<g>
			<path d="M70.87,86.19h-0.32l-0.4-0.41c-0.95-1-1.45-1.45-2.04-1.45c-0.4,0-0.76,0.19-0.76,0.77c0,0.35,0.18,0.65,0.33,0.83
				l-0.37,0.17c-0.23-0.27-0.4-0.65-0.4-1.1c0-0.84,0.58-1.19,1.13-1.19c0.72,0,1.3,0.52,2.09,1.34l0.29,0.31h0.01V83.7h0.44V86.19z
				"/>
			<path d="M70.87,83.11h-0.32l-0.4-0.41c-0.95-1-1.45-1.45-2.04-1.45c-0.4,0-0.76,0.19-0.76,0.77c0,0.35,0.18,0.65,0.33,0.83
				l-0.37,0.17c-0.23-0.27-0.4-0.65-0.4-1.1c0-0.84,0.58-1.19,1.13-1.19c0.72,0,1.3,0.52,2.09,1.34l0.29,0.31h0.01v-1.75h0.44V83.11
				z"/>
			<path d="M70.55,79.99c-0.22,0-0.38-0.15-0.38-0.36c0-0.21,0.16-0.35,0.38-0.35c0.22,0,0.38,0.14,0.38,0.36
				C70.93,79.85,70.77,79.99,70.55,79.99z"/>
			<path d="M69.88,78.84c-0.49,0-0.84-0.29-1.04-0.77l-0.02,0.01c-0.2,0.43-0.54,0.62-0.88,0.62c-0.62,0-1.04-0.52-1.04-1.21
				c0-0.76,0.47-1.13,0.96-1.13c0.33,0,0.68,0.16,0.91,0.64h0.02c0.19-0.49,0.53-0.79,1.01-0.79c0.68,0,1.13,0.58,1.13,1.33
				C70.93,78.35,70.45,78.84,69.88,78.84z M67.9,78.19c0.39,0,0.6-0.29,0.72-0.74c-0.11-0.34-0.35-0.59-0.71-0.59
				c-0.31,0-0.64,0.19-0.64,0.66C67.28,77.95,67.57,78.19,67.9,78.19z M69.85,76.74c-0.47,0-0.7,0.33-0.85,0.86
				c0.13,0.46,0.43,0.7,0.8,0.7c0.4,0.02,0.74-0.28,0.74-0.78C70.55,77.04,70.25,76.74,69.85,76.74z"/>
			<path d="M67.34,73.49c-0.01,0.11,0,0.25,0.02,0.4c0.14,0.83,0.74,1.27,1.39,1.35v-0.02c-0.25-0.19-0.45-0.51-0.45-0.94
				c0-0.69,0.5-1.18,1.26-1.18c0.71,0,1.37,0.49,1.37,1.3c0,0.83-0.65,1.38-1.66,1.38c-0.77,0-1.37-0.28-1.76-0.66
				c-0.32-0.32-0.52-0.76-0.58-1.25c-0.02-0.16-0.03-0.29-0.03-0.38H67.34z M69.59,73.64c-0.56,0-0.89,0.32-0.89,0.8
				c0,0.32,0.2,0.61,0.48,0.76c0.06,0.04,0.14,0.06,0.23,0.06c0.64-0.01,1.12-0.31,1.12-0.86C70.52,73.94,70.15,73.64,69.59,73.64z"
				/>
			<path d="M68.75,71.19c-0.3,0-0.55,0.01-0.79,0.02v-0.46l0.47-0.02v-0.02c-0.28-0.16-0.53-0.43-0.53-0.91
				c0-0.4,0.24-0.7,0.58-0.82v-0.01c-0.16-0.09-0.29-0.2-0.38-0.32c-0.13-0.17-0.2-0.37-0.2-0.64c0-0.38,0.25-0.95,1.26-0.95h1.71
				v0.52h-1.64c-0.56,0-0.89,0.2-0.89,0.63c0,0.3,0.22,0.53,0.48,0.62c0.07,0.02,0.17,0.04,0.26,0.04h1.79v0.52h-1.74
				c-0.46,0-0.8,0.2-0.8,0.61c0,0.33,0.26,0.57,0.53,0.65c0.08,0.03,0.17,0.04,0.26,0.04h1.75v0.52H68.75z"/>
			<path d="M68.75,66.19c-0.3,0-0.55,0.01-0.79,0.02v-0.46l0.47-0.02v-0.02c-0.28-0.16-0.53-0.43-0.53-0.91
				c0-0.4,0.24-0.7,0.58-0.82v-0.01c-0.16-0.09-0.29-0.2-0.38-0.32c-0.13-0.17-0.2-0.37-0.2-0.64c0-0.38,0.25-0.95,1.26-0.95h1.71
				v0.52h-1.64c-0.56,0-0.89,0.2-0.89,0.63c0,0.3,0.22,0.53,0.48,0.62c0.07,0.02,0.17,0.04,0.26,0.04h1.79v0.52h-1.74
				c-0.46,0-0.8,0.2-0.8,0.61c0,0.33,0.26,0.57,0.53,0.65c0.08,0.03,0.17,0.04,0.26,0.04h1.75v0.52H68.75z"/>
			<path d="M66.7,58.77c0.59,0.44,1.37,0.76,2.45,0.76c1.07,0,1.83-0.33,2.43-0.76v0.41c-0.5,0.38-1.27,0.79-2.43,0.79
				c-1.18-0.01-1.95-0.41-2.45-0.79V58.77z"/>
			<path d="M68.88,55.79c1.33,0,2.06,0.49,2.06,1.35c0,0.76-0.71,1.28-2,1.29c-1.31,0-2.03-0.56-2.03-1.36
				C66.9,56.25,67.63,55.79,68.88,55.79z M68.94,57.9c1.01,0,1.59-0.31,1.59-0.79c0-0.54-0.63-0.8-1.62-0.8
				c-0.96,0-1.59,0.25-1.59,0.79C67.31,57.57,67.87,57.9,68.94,57.9z"/>
			<path d="M70.55,55.26c-0.22,0-0.38-0.15-0.38-0.36c0-0.21,0.16-0.35,0.38-0.35c0.22,0,0.38,0.14,0.38,0.36
				C70.93,55.11,70.77,55.26,70.55,55.26z"/>
			<path d="M70.49,53.75c0.01-0.11,0-0.25-0.02-0.43c-0.04-0.31-0.17-0.59-0.38-0.82c-0.23-0.26-0.58-0.44-1.04-0.52v0.02
				c0.26,0.22,0.42,0.53,0.42,0.92c0,0.7-0.53,1.15-1.19,1.15c-0.74,0-1.39-0.53-1.39-1.33s0.65-1.29,1.64-1.29
				c0.86,0,1.46,0.29,1.83,0.67c0.29,0.3,0.47,0.71,0.52,1.13c0.03,0.19,0.04,0.36,0.03,0.49H70.49z M68.25,53.56
				c0.49,0,0.83-0.29,0.83-0.75c0-0.35-0.17-0.63-0.41-0.77C68.62,52.01,68.56,52,68.48,52c-0.67,0-1.18,0.25-1.18,0.8
				C67.3,53.24,67.7,53.56,68.25,53.56z"/>
			<path d="M67.15,48.95c0.18-0.01,0.32,0.13,0.32,0.34c0,0.19-0.14,0.32-0.32,0.32c-0.19,0-0.33-0.14-0.33-0.33
				C66.82,49.08,66.96,48.95,67.15,48.95z M70.87,49.54h-2.9v-0.53h2.9V49.54z"/>
			<path d="M68.75,48.14c-0.3,0-0.55,0.01-0.79,0.02v-0.47l0.48-0.03v-0.01c-0.28-0.14-0.55-0.48-0.55-0.96
				c0-0.4,0.24-1.03,1.24-1.03h1.73v0.53h-1.67c-0.47,0-0.86,0.17-0.86,0.67c0,0.35,0.25,0.62,0.54,0.71
				c0.07,0.02,0.16,0.04,0.25,0.04h1.75v0.53H68.75z"/>
			<path d="M71.59,45.12c-0.59-0.43-1.37-0.76-2.45-0.76c-1.07,0-1.84,0.32-2.43,0.76v-0.41c0.49-0.38,1.26-0.79,2.44-0.79
				c1.18,0,1.94,0.4,2.45,0.79V45.12z"/>
		</g>
	</g>
	<g id="inside">
		<rect id="hole_perimeter" x="80.2" y="41" fill="#FFFFFF" stroke="#FFF200" stroke-miterlimit="10" width="129.6" height="50.4"/>
		<g id="feather_sinks">
			<circle fill="#FFFFFF" stroke="#ED1C24" stroke-miterlimit="10" cx="80.2" cy="41" r="3.6"/>
			<circle fill="#FFFFFF" stroke="#ED1C24" stroke-miterlimit="10" cx="209.8" cy="91.4" r="3.6"/>
			<circle fill="#FFFFFF" stroke="#ED1C24" stroke-miterlimit="10" cx="80.2" cy="91.4" r="3.6"/>
			<circle fill="#FFFFFF" stroke="#ED1C24" stroke-miterlimit="10" cx="209.8" cy="41" r="3.6"/>
		</g>
		<g>
			<path d="M86.38,83.75v1.69h1.96v-1.69h0.53v4.04h-0.53v-1.9h-1.96v1.9h-0.52v-4.04H86.38z"/>
			<path d="M92.38,86.32c0,1.07-0.74,1.54-1.45,1.54c-0.79,0-1.39-0.58-1.39-1.49c0-0.97,0.64-1.54,1.44-1.54
				C91.82,84.83,92.38,85.43,92.38,86.32z M90.08,86.35c0,0.64,0.37,1.12,0.88,1.12c0.5,0,0.88-0.47,0.88-1.13
				c0-0.49-0.25-1.12-0.87-1.12C90.35,85.22,90.08,85.8,90.08,86.35z"/>
			<path d="M93.05,83.54h0.53v4.26h-0.53V83.54z"/>
			<path d="M94.76,86.44c0.01,0.71,0.47,1.01,1,1.01c0.38,0,0.61-0.07,0.8-0.15l0.09,0.38c-0.19,0.08-0.5,0.18-0.97,0.18
				c-0.89,0-1.43-0.59-1.43-1.46s0.52-1.56,1.36-1.56c0.95,0,1.2,0.83,1.2,1.37c0,0.11-0.01,0.19-0.02,0.25H94.76z M96.3,86.06
				c0.01-0.34-0.14-0.86-0.73-0.86c-0.53,0-0.77,0.49-0.81,0.86H96.3z"/>
			<path d="M98.76,83.81c0.32-0.05,0.7-0.08,1.11-0.08c0.75,0,1.28,0.17,1.64,0.5c0.36,0.33,0.57,0.8,0.57,1.45
				c0,0.66-0.2,1.2-0.58,1.57c-0.38,0.38-1,0.58-1.79,0.58c-0.37,0-0.68-0.02-0.95-0.05V83.81z M99.28,87.38
				c0.13,0.02,0.32,0.03,0.53,0.03c1.12,0,1.72-0.62,1.72-1.71c0.01-0.95-0.53-1.56-1.64-1.56c-0.27,0-0.47,0.02-0.61,0.05V87.38z"
				/>
			<path d="M103.81,85.78v-0.36h3.09v0.36H103.81z M103.81,86.95v-0.36h3.09v0.36H103.81z"/>
			<path d="M108.69,87.8v-0.32l0.41-0.4c1-0.95,1.45-1.45,1.45-2.04c0-0.4-0.19-0.76-0.77-0.76c-0.35,0-0.65,0.18-0.83,0.33
				l-0.17-0.37c0.27-0.23,0.65-0.4,1.1-0.4c0.84,0,1.19,0.58,1.19,1.13c0,0.72-0.52,1.3-1.34,2.09l-0.31,0.29v0.01h1.75v0.44H108.69
				z"/>
			<path d="M114.09,84.34h-1.49l-0.15,1c0.09-0.01,0.17-0.02,0.32-0.02c0.3,0,0.6,0.07,0.84,0.21c0.31,0.17,0.56,0.51,0.56,1
				c0,0.76-0.61,1.33-1.45,1.33c-0.43,0-0.79-0.12-0.97-0.24l0.13-0.4c0.16,0.1,0.48,0.22,0.83,0.22c0.5,0,0.92-0.32,0.92-0.85
				c-0.01-0.5-0.34-0.86-1.12-0.86c-0.22,0-0.4,0.02-0.54,0.04l0.25-1.87h1.87V84.34z"/>
			<path d="M114.89,87.48c0-0.22,0.15-0.38,0.36-0.38c0.21,0,0.35,0.16,0.35,0.38c0,0.22-0.14,0.38-0.36,0.38
				C115.03,87.86,114.89,87.7,114.89,87.48z"/>
			<path d="M117.72,87.8v-1.06h-1.81v-0.35l1.74-2.49h0.57v2.42h0.55v0.41h-0.55v1.06H117.72z M117.72,86.32v-1.3
				c0-0.2,0.01-0.41,0.02-0.61h-0.02c-0.12,0.23-0.22,0.4-0.32,0.58l-0.95,1.33v0.01H117.72z"/>
			<path d="M119.33,85.68c0-0.3-0.01-0.55-0.02-0.79h0.46l0.02,0.47h0.02c0.16-0.28,0.43-0.53,0.91-0.53c0.4,0,0.7,0.24,0.82,0.58
				h0.01c0.09-0.16,0.2-0.29,0.32-0.38c0.17-0.13,0.37-0.2,0.64-0.2c0.38,0,0.95,0.25,0.95,1.26v1.71h-0.52v-1.64
				c0-0.56-0.2-0.89-0.63-0.89c-0.3,0-0.53,0.22-0.62,0.48c-0.02,0.07-0.04,0.17-0.04,0.26v1.79h-0.52v-1.74
				c0-0.46-0.2-0.8-0.61-0.8c-0.33,0-0.57,0.26-0.65,0.53c-0.03,0.08-0.04,0.17-0.04,0.26v1.75h-0.52V85.68z"/>
			<path d="M124.34,85.68c0-0.3-0.01-0.55-0.02-0.79h0.46l0.02,0.47h0.02c0.16-0.28,0.43-0.53,0.91-0.53c0.4,0,0.7,0.24,0.82,0.58
				h0.01c0.09-0.16,0.2-0.29,0.32-0.38c0.17-0.13,0.37-0.2,0.64-0.2c0.38,0,0.95,0.25,0.95,1.26v1.71h-0.52v-1.64
				c0-0.56-0.2-0.89-0.63-0.89c-0.3,0-0.53,0.22-0.62,0.48c-0.02,0.07-0.04,0.17-0.04,0.26v1.79h-0.52v-1.74
				c0-0.46-0.2-0.8-0.61-0.8c-0.33,0-0.57,0.26-0.65,0.53c-0.03,0.08-0.04,0.17-0.04,0.26v1.75h-0.52V85.68z"/>
			<path d="M131.76,83.64C131.32,84.22,131,85,131,86.09c0,1.07,0.33,1.83,0.76,2.43h-0.41c-0.38-0.5-0.79-1.27-0.79-2.43
				c0.01-1.18,0.41-1.95,0.79-2.45H131.76z"/>
			<path d="M134.74,85.81c0,1.33-0.49,2.06-1.35,2.06c-0.76,0-1.28-0.71-1.29-2c0-1.31,0.56-2.03,1.36-2.03
				C134.27,83.83,134.74,84.56,134.74,85.81z M132.62,85.87c0,1.01,0.31,1.59,0.79,1.59c0.54,0,0.8-0.63,0.8-1.62
				c0-0.96-0.25-1.59-0.79-1.59C132.96,84.24,132.62,84.8,132.62,85.87z"/>
			<path d="M135.27,87.48c0-0.22,0.15-0.38,0.36-0.38c0.21,0,0.35,0.16,0.35,0.38c0,0.22-0.14,0.38-0.36,0.38
				C135.41,87.86,135.27,87.7,135.27,87.48z"/>
			<path d="M137.61,84.39h-0.01l-0.68,0.37l-0.1-0.4l0.85-0.46h0.45v3.9h-0.51V84.39z"/>
			<path d="M141.57,84.08c0.01,0.18-0.13,0.32-0.34,0.32c-0.19,0-0.32-0.14-0.32-0.32c0-0.19,0.14-0.33,0.33-0.33
				C141.45,83.75,141.57,83.89,141.57,84.08z M140.99,87.8v-2.9h0.53v2.9H140.99z"/>
			<path d="M142.39,85.68c0-0.3-0.01-0.55-0.02-0.79h0.47l0.03,0.48h0.01c0.14-0.28,0.48-0.55,0.96-0.55c0.4,0,1.03,0.24,1.03,1.24
				v1.73h-0.53v-1.67c0-0.47-0.17-0.86-0.67-0.86c-0.35,0-0.62,0.25-0.71,0.54c-0.02,0.07-0.04,0.16-0.04,0.25v1.75h-0.53V85.68z"/>
			<path d="M145.4,88.52c0.43-0.59,0.76-1.37,0.76-2.45c0-1.07-0.32-1.84-0.76-2.43h0.41c0.38,0.49,0.79,1.26,0.79,2.44
				c0,1.18-0.4,1.94-0.79,2.45H145.4z"/>
		</g>
		<g>
			<path d="M204.39,84.77v0.01l0.37,0.68l-0.4,0.1l-0.46-0.85v-0.45h3.9v0.51H204.39z"/>
			<path d="M203.9,80.31h0.35l3.55,1.7v0.55l-3.45-1.69h-0.01v1.91h-0.44V80.31z"/>
			<path d="M207.49,79.72c-0.22,0-0.38-0.15-0.38-0.36c0-0.21,0.16-0.35,0.38-0.35c0.22,0,0.38,0.14,0.38,0.36
				C207.87,79.58,207.7,79.72,207.49,79.72z"/>
			<path d="M203.9,75.99h0.35l3.55,1.7v0.55l-3.45-1.69h-0.01v1.91h-0.44V75.99z"/>
			<path d="M206.81,75.49c-0.49,0-0.84-0.29-1.04-0.77l-0.02,0.01c-0.2,0.43-0.54,0.62-0.88,0.62c-0.62,0-1.04-0.52-1.04-1.21
				c0-0.76,0.47-1.13,0.96-1.13c0.33,0,0.68,0.16,0.91,0.64h0.02c0.19-0.49,0.53-0.79,1.01-0.79c0.68,0,1.13,0.58,1.13,1.33
				C207.87,75,207.38,75.49,206.81,75.49z M204.84,74.84c0.39,0,0.6-0.29,0.72-0.74c-0.11-0.34-0.35-0.59-0.71-0.59
				c-0.31,0-0.64,0.19-0.64,0.66C204.21,74.6,204.5,74.84,204.84,74.84z M206.79,73.39c-0.47,0-0.7,0.33-0.85,0.86
				c0.13,0.46,0.43,0.7,0.8,0.7c0.4,0.02,0.74-0.28,0.74-0.78C207.48,73.7,207.19,73.39,206.79,73.39z"/>
			<path d="M205.68,72.2c-0.3,0-0.55,0.01-0.79,0.02v-0.46l0.47-0.02v-0.02c-0.28-0.16-0.53-0.43-0.53-0.91
				c0-0.4,0.24-0.7,0.58-0.82v-0.01c-0.16-0.09-0.29-0.2-0.38-0.32c-0.13-0.17-0.2-0.37-0.2-0.64c0-0.38,0.25-0.95,1.26-0.95h1.71
				v0.52h-1.64c-0.56,0-0.89,0.2-0.89,0.63c0,0.3,0.22,0.53,0.48,0.62c0.07,0.02,0.17,0.04,0.26,0.04h1.79v0.52h-1.74
				c-0.46,0-0.8,0.2-0.8,0.61c0,0.33,0.26,0.57,0.53,0.65c0.08,0.03,0.17,0.04,0.26,0.04h1.75v0.52H205.68z"/>
			<path d="M205.68,67.19c-0.3,0-0.55,0.01-0.79,0.02v-0.46l0.47-0.02v-0.02c-0.28-0.16-0.53-0.43-0.53-0.91
				c0-0.4,0.24-0.7,0.58-0.82v-0.01c-0.16-0.09-0.29-0.2-0.38-0.32c-0.13-0.17-0.2-0.37-0.2-0.64c0-0.38,0.25-0.95,1.26-0.95h1.71
				v0.52h-1.64c-0.56,0-0.89,0.2-0.89,0.63c0,0.3,0.22,0.53,0.48,0.62c0.07,0.02,0.17,0.04,0.26,0.04h1.79v0.52h-1.74
				c-0.46,0-0.8,0.2-0.8,0.61c0,0.33,0.26,0.57,0.53,0.65c0.08,0.03,0.17,0.04,0.26,0.04h1.75v0.52H205.68z"/>
			<path d="M203.64,59.77c0.59,0.44,1.37,0.76,2.45,0.76c1.07,0,1.83-0.33,2.43-0.76v0.41c-0.5,0.38-1.27,0.79-2.43,0.79
				c-1.18-0.01-1.95-0.41-2.45-0.79V59.77z"/>
			<path d="M205.81,56.79c1.33,0,2.06,0.49,2.06,1.35c0,0.76-0.71,1.28-2,1.29c-1.31,0-2.03-0.56-2.03-1.36
				C203.84,57.26,204.57,56.79,205.81,56.79z M205.87,58.91c1.01,0,1.59-0.31,1.59-0.79c0-0.54-0.63-0.8-1.62-0.8
				c-0.96,0-1.59,0.25-1.59,0.79C204.24,58.57,204.81,58.91,205.87,58.91z"/>
			<path d="M207.49,56.26c-0.22,0-0.38-0.15-0.38-0.36c0-0.21,0.16-0.35,0.38-0.35c0.22,0,0.38,0.14,0.38,0.36
				C207.87,56.12,207.7,56.26,207.49,56.26z"/>
			<path d="M203.9,52.53h0.35l3.55,1.7v0.55l-3.45-1.69h-0.01v1.91h-0.44V52.53z"/>
			<path d="M204.08,51.23c0.18-0.01,0.32,0.13,0.32,0.34c0,0.19-0.14,0.32-0.32,0.32c-0.19,0-0.33-0.14-0.33-0.33
				C203.75,51.35,203.9,51.23,204.08,51.23z M207.8,51.81h-2.9v-0.53h2.9V51.81z"/>
			<path d="M205.68,50.41c-0.3,0-0.55,0.01-0.79,0.02v-0.47l0.48-0.03v-0.01c-0.28-0.14-0.55-0.48-0.55-0.96
				c0-0.4,0.24-1.03,1.24-1.03h1.73v0.53h-1.67c-0.47,0-0.86,0.17-0.86,0.67c0,0.35,0.25,0.62,0.54,0.71
				c0.07,0.02,0.16,0.04,0.25,0.04h1.75v0.53H205.68z"/>
			<path d="M208.53,47.4c-0.59-0.43-1.37-0.76-2.45-0.76c-1.07,0-1.84,0.32-2.43,0.76v-0.41c0.49-0.38,1.26-0.79,2.44-0.79
				c1.18,0,1.94,0.4,2.45,0.79V47.4z"/>
		</g>
		<g>
			<path d="M127.33,46.2v-1.06h-1.81v-0.35l1.74-2.49h0.57v2.42h0.55v0.41h-0.55v1.06H127.33z M127.33,44.73v-1.3
				c0-0.2,0.01-0.41,0.02-0.61h-0.02c-0.12,0.23-0.22,0.4-0.32,0.58l-0.95,1.33v0.01H127.33z"/>
			<path d="M131.1,42.75h-1.49l-0.15,1c0.09-0.01,0.17-0.02,0.32-0.02c0.3,0,0.6,0.07,0.84,0.21c0.31,0.17,0.56,0.51,0.56,1
				c0,0.76-0.61,1.33-1.45,1.33c-0.43,0-0.79-0.12-0.97-0.24l0.13-0.4c0.16,0.1,0.48,0.22,0.83,0.22c0.5,0,0.92-0.32,0.92-0.85
				c-0.01-0.5-0.34-0.86-1.12-0.86c-0.22,0-0.4,0.02-0.54,0.04l0.25-1.87h1.87V42.75z"/>
			<path d="M131.89,45.89c0-0.22,0.15-0.38,0.36-0.38c0.21,0,0.35,0.16,0.35,0.38c0,0.22-0.14,0.38-0.36,0.38
				C132.04,46.27,131.89,46.11,131.89,45.89z"/>
			<path d="M135.62,42.31v0.35l-1.7,3.55h-0.55l1.69-3.45v-0.01h-1.91v-0.44H135.62z"/>
			<path d="M137.8,46.2v-1.06h-1.81v-0.35l1.74-2.49h0.57v2.42h0.55v0.41h-0.55v1.06H137.8z M137.8,44.73v-1.3
				c0-0.2,0.01-0.41,0.02-0.61h-0.02c-0.12,0.23-0.22,0.4-0.32,0.58l-0.95,1.33v0.01H137.8z"/>
			<path d="M140.69,44.09c0-0.3-0.01-0.55-0.02-0.79h0.46l0.02,0.47h0.02c0.16-0.28,0.43-0.53,0.91-0.53c0.4,0,0.7,0.24,0.82,0.58
				h0.01c0.09-0.16,0.2-0.29,0.32-0.38c0.17-0.13,0.37-0.2,0.64-0.2c0.38,0,0.95,0.25,0.95,1.26v1.71h-0.52v-1.64
				c0-0.56-0.2-0.89-0.63-0.89c-0.3,0-0.53,0.22-0.62,0.48c-0.02,0.07-0.04,0.17-0.04,0.26v1.79h-0.52v-1.74
				c0-0.46-0.2-0.8-0.61-0.8c-0.33,0-0.57,0.26-0.65,0.53c-0.03,0.08-0.04,0.17-0.04,0.26v1.75h-0.52V44.09z"/>
			<path d="M145.69,44.09c0-0.3-0.01-0.55-0.02-0.79h0.46l0.02,0.47h0.02c0.16-0.28,0.43-0.53,0.91-0.53c0.4,0,0.7,0.24,0.82,0.58
				h0.01c0.09-0.16,0.2-0.29,0.32-0.38c0.17-0.13,0.37-0.2,0.64-0.2c0.38,0,0.95,0.25,0.95,1.26v1.71h-0.52v-1.64
				c0-0.56-0.2-0.89-0.63-0.89c-0.3,0-0.53,0.22-0.62,0.48c-0.02,0.07-0.04,0.17-0.04,0.26v1.79h-0.52v-1.74
				c0-0.46-0.2-0.8-0.61-0.8c-0.33,0-0.57,0.26-0.65,0.53c-0.03,0.08-0.04,0.17-0.04,0.26v1.75h-0.52V44.09z"/>
			<path d="M153.11,42.04c-0.44,0.59-0.76,1.37-0.76,2.45c0,1.07,0.33,1.83,0.76,2.43h-0.41c-0.38-0.5-0.79-1.27-0.79-2.43
				c0.01-1.18,0.41-1.95,0.79-2.45H153.11z"/>
			<path d="M154.65,42.8h-0.01l-0.68,0.37l-0.1-0.4l0.85-0.46h0.45v3.9h-0.51V42.8z"/>
			<path d="M156.63,45.89c0-0.22,0.15-0.38,0.36-0.38c0.21,0,0.35,0.16,0.35,0.38c0,0.22-0.14,0.38-0.36,0.38
				C156.77,46.27,156.63,46.11,156.63,45.89z"/>
			<path d="M157.78,45.21c0-0.49,0.29-0.84,0.77-1.04l-0.01-0.02c-0.43-0.2-0.62-0.54-0.62-0.88c0-0.62,0.52-1.04,1.21-1.04
				c0.76,0,1.13,0.47,1.13,0.96c0,0.33-0.16,0.68-0.64,0.91v0.02c0.49,0.19,0.79,0.53,0.79,1.01c0,0.68-0.58,1.13-1.33,1.13
				C158.27,46.27,157.78,45.78,157.78,45.21z M159.88,45.19c0-0.47-0.33-0.7-0.86-0.85c-0.46,0.13-0.7,0.43-0.7,0.8
				c-0.02,0.4,0.28,0.74,0.78,0.74C159.57,45.89,159.88,45.59,159.88,45.19z M158.43,43.24c0,0.39,0.29,0.6,0.74,0.72
				c0.34-0.11,0.59-0.35,0.59-0.71c0-0.31-0.19-0.64-0.66-0.64C158.67,42.62,158.43,42.91,158.43,43.24z"/>
			<path d="M162.93,42.49c0.01,0.18-0.13,0.32-0.34,0.32c-0.19,0-0.32-0.14-0.32-0.32c0-0.19,0.14-0.33,0.33-0.33
				C162.81,42.16,162.93,42.3,162.93,42.49z M162.34,46.2v-2.9h0.53v2.9H162.34z"/>
			<path d="M163.75,44.09c0-0.3-0.01-0.55-0.02-0.79h0.47l0.03,0.48h0.01c0.14-0.28,0.48-0.55,0.96-0.55c0.4,0,1.03,0.24,1.03,1.24
				v1.73h-0.53v-1.67c0-0.47-0.17-0.86-0.67-0.86c-0.35,0-0.62,0.25-0.71,0.54c-0.02,0.07-0.04,0.16-0.04,0.25v1.75h-0.53V44.09z"/>
			<path d="M166.76,46.93c0.43-0.59,0.76-1.37,0.76-2.45c0-1.07-0.32-1.84-0.76-2.43h0.41c0.38,0.49,0.79,1.26,0.79,2.44
				c0,1.18-0.4,1.94-0.79,2.45H166.76z"/>
		</g>
	</g>
	<g>
		<path d="M117.37,59.55h3.27v0.66h-2.48v2.02h2.3v0.65h-2.3v2.75h-0.78V59.55z"/>
		<path d="M121.89,63.58c0.02,1.07,0.7,1.51,1.49,1.51c0.57,0,0.91-0.1,1.21-0.23l0.13,0.57c-0.28,0.13-0.76,0.27-1.45,0.27
			c-1.34,0-2.14-0.88-2.14-2.2c0-1.31,0.77-2.35,2.04-2.35c1.42,0,1.8,1.25,1.8,2.05c0,0.16-0.02,0.29-0.03,0.37H121.89z
			 M124.21,63.02c0.01-0.5-0.21-1.29-1.1-1.29c-0.8,0-1.15,0.74-1.22,1.29H124.21z"/>
		<path d="M128.37,65.62l-0.06-0.55h-0.03c-0.24,0.34-0.71,0.65-1.33,0.65c-0.88,0-1.33-0.62-1.33-1.25c0-1.05,0.94-1.63,2.62-1.62
			v-0.09c0-0.36-0.1-1.01-0.99-1.01c-0.4,0-0.83,0.13-1.13,0.32l-0.18-0.52c0.36-0.23,0.88-0.39,1.43-0.39
			c1.33,0,1.66,0.91,1.66,1.78v1.63c0,0.38,0.02,0.75,0.07,1.04H128.37z M128.25,63.39c-0.86-0.02-1.85,0.14-1.85,0.98
			c0,0.51,0.34,0.76,0.75,0.76c0.57,0,0.93-0.36,1.05-0.73c0.03-0.08,0.05-0.17,0.05-0.25V63.39z"/>
		<path d="M131.21,60.01v1.25h1.13v0.6h-1.13v2.35c0,0.54,0.15,0.85,0.59,0.85c0.21,0,0.36-0.03,0.46-0.05l0.04,0.59
			c-0.15,0.06-0.4,0.11-0.7,0.11c-0.37,0-0.67-0.12-0.85-0.33c-0.23-0.23-0.31-0.62-0.31-1.13v-2.38h-0.68v-0.6h0.68v-1.04
			L131.21,60.01z"/>
		<path d="M133.24,59.22h0.79v2.72h0.02c0.13-0.22,0.32-0.42,0.57-0.56c0.23-0.13,0.51-0.23,0.81-0.23c0.59,0,1.52,0.36,1.52,1.86
			v2.59h-0.79v-2.5c0-0.7-0.26-1.3-1.01-1.3c-0.51,0-0.92,0.36-1.06,0.79c-0.04,0.11-0.05,0.23-0.05,0.38v2.63h-0.79V59.22z"/>
		<path d="M138.67,63.58c0.02,1.07,0.7,1.51,1.49,1.51c0.57,0,0.91-0.1,1.21-0.23l0.13,0.57c-0.28,0.13-0.76,0.27-1.45,0.27
			c-1.34,0-2.14-0.88-2.14-2.2c0-1.31,0.77-2.35,2.04-2.35c1.42,0,1.8,1.25,1.8,2.05c0,0.16-0.02,0.29-0.03,0.37H138.67z M141,63.02
			c0.01-0.5-0.21-1.29-1.1-1.29c-0.8,0-1.15,0.74-1.22,1.29H141z"/>
		<path d="M142.74,62.62c0-0.51-0.01-0.95-0.04-1.36h0.69l0.03,0.86h0.04c0.2-0.59,0.68-0.95,1.21-0.95c0.09,0,0.15,0.01,0.23,0.03
			v0.75c-0.08-0.02-0.16-0.03-0.27-0.03c-0.56,0-0.95,0.42-1.06,1.02c-0.02,0.11-0.04,0.23-0.04,0.37v2.32h-0.78V62.62z"/>
		<path d="M145.68,65.62c0.02-0.3,0.04-0.74,0.04-1.13v-5.27h0.78v2.74h0.02c0.28-0.49,0.78-0.8,1.49-0.8c1.08,0,1.85,0.9,1.84,2.22
			c0,1.56-0.98,2.33-1.95,2.33c-0.63,0-1.13-0.24-1.46-0.82h-0.03l-0.04,0.72H145.68z M146.5,63.87c0,0.1,0.02,0.2,0.04,0.29
			c0.15,0.55,0.61,0.93,1.19,0.93c0.83,0,1.32-0.68,1.32-1.67c0-0.87-0.45-1.62-1.3-1.62c-0.54,0-1.04,0.37-1.21,0.97
			c-0.02,0.09-0.04,0.2-0.04,0.32V63.87z"/>
		<path d="M154.78,63.4c0,1.61-1.12,2.31-2.17,2.31c-1.18,0-2.09-0.86-2.09-2.24c0-1.46,0.95-2.31,2.16-2.31
			C153.94,61.16,154.78,62.07,154.78,63.4z M151.33,63.45c0,0.95,0.55,1.67,1.32,1.67c0.76,0,1.32-0.71,1.32-1.69
			c0-0.74-0.37-1.67-1.31-1.67C151.73,61.75,151.33,62.62,151.33,63.45z"/>
		<path d="M158.19,65.62l-0.06-0.55h-0.03c-0.24,0.34-0.71,0.65-1.33,0.65c-0.88,0-1.33-0.62-1.33-1.25c0-1.05,0.94-1.63,2.62-1.62
			v-0.09c0-0.36-0.1-1.01-0.99-1.01c-0.41,0-0.83,0.13-1.13,0.32l-0.18-0.52c0.36-0.23,0.88-0.39,1.43-0.39
			c1.33,0,1.66,0.91,1.66,1.78v1.63c0,0.38,0.02,0.75,0.07,1.04H158.19z M158.08,63.39c-0.86-0.02-1.85,0.14-1.85,0.98
			c0,0.51,0.34,0.76,0.75,0.76c0.57,0,0.93-0.36,1.05-0.73c0.03-0.08,0.04-0.17,0.04-0.25V63.39z"/>
		<path d="M160.12,62.62c0-0.51-0.01-0.95-0.04-1.36h0.69l0.03,0.86h0.04c0.2-0.59,0.68-0.95,1.21-0.95c0.09,0,0.15,0.01,0.23,0.03
			v0.75c-0.08-0.02-0.16-0.03-0.27-0.03c-0.56,0-0.95,0.42-1.06,1.02c-0.02,0.11-0.04,0.23-0.04,0.37v2.32h-0.78V62.62z"/>
		<path d="M166.74,59.22v5.27c0,0.39,0.01,0.83,0.04,1.13h-0.71l-0.04-0.76h-0.02c-0.24,0.49-0.77,0.86-1.49,0.86
			c-1.05,0-1.86-0.89-1.86-2.21c-0.01-1.45,0.89-2.34,1.95-2.34c0.67,0,1.12,0.32,1.31,0.67h0.02v-2.6H166.74z M165.94,63.03
			c0-0.1-0.01-0.23-0.04-0.33c-0.12-0.5-0.55-0.92-1.14-0.92c-0.82,0-1.31,0.72-1.31,1.68c0,0.88,0.43,1.61,1.29,1.61
			c0.53,0,1.02-0.35,1.16-0.95c0.03-0.11,0.04-0.22,0.04-0.34V63.03z"/>
	</g>
</g>
</svg>
