<svg id="status-light" xmlns="http://www.w3.org/2000/svg" width="2.23in" height="2.23in" viewBox="0 0 160.88 160.22">
  <defs>
    <style>
      .cls-1, .cls-2 {
        fill: #fff;
      }

      .cls-1 {
        stroke: #ed1c24;
      }

      .cls-1, .cls-2, .cls-3 {
        stroke-miterlimit: 10;
      }

      .cls-2 {
        stroke: #231f20;
      }

      .cls-3 {
        fill: none;
        stroke: #fff200;
      }

      .cls-4 {
        fill: #231f20;
      }
    </style>
  </defs>
  <rect class="cls-1" x="0.5" y="0.5" width="159.88" height="159.22" rx="12"/>
  <rect id="buck_convertor" data-name="buck convertor" class="cls-2" x="111.6" y="-7.2" width="64.8" height="144" transform="translate(16.84 183.08) rotate(-90)"/>
  <rect id="feather" class="cls-2" x="9.57" y="82.24" width="141.73" height="70.87"/>
  <rect class="cls-3" x="16.64" y="13.68" width="129.6" height="50.4"/>
  <circle class="cls-1" cx="16.21" cy="13.68" r="3.6"/>
  <circle class="cls-1" cx="146.62" cy="13.37" r="3.6"/>
  <circle class="cls-1" cx="16.64" cy="64.08" r="3.6"/>
  <circle class="cls-1" cx="146.62" cy="64.59" r="3.6"/>
  <circle class="cls-1" cx="16.28" cy="146.91" r="4.54"/>
  <circle class="cls-1" cx="16.28" cy="88.53" r="4.54"/>
  <circle class="cls-1" cx="145.08" cy="146.4" r="4.54"/>
  <circle class="cls-1" cx="145.08" cy="88.53" r="4.54"/>
  <g>
    <path class="cls-4" d="M65,104a3,3,0,0,0,1.55.44c.89,0,1.41-.46,1.41-1.14s-.36-1-1.27-1.34c-1.1-.39-1.77-1-1.77-1.91a1.93,1.93,0,0,1,2.17-1.83,3.06,3.06,0,0,1,1.49.33l-.24.71a2.68,2.68,0,0,0-1.28-.32c-.92,0-1.27.55-1.27,1,0,.63.41.94,1.34,1.3,1.14.44,1.72,1,1.72,2s-.77,1.93-2.36,1.93a3.44,3.44,0,0,1-1.71-.43Z" transform="translate(-62.36 -25.72)"/>
    <path class="cls-4" d="M71.05,98.8v1.39h1.26v.67H71.05v2.61c0,.59.17.93.66.93a1.6,1.6,0,0,0,.51-.06l0,.66a2.15,2.15,0,0,1-.78.12,1.18,1.18,0,0,1-.94-.37,1.78,1.78,0,0,1-.34-1.25v-2.64h-.75v-.67h.75V99Z" transform="translate(-62.36 -25.72)"/>
    <path class="cls-4" d="M76,105l-.07-.61h0a1.8,1.8,0,0,1-1.48.72,1.37,1.37,0,0,1-1.47-1.38c0-1.17,1-1.81,2.9-1.8v-.1a1,1,0,0,0-1.1-1.12,2.35,2.35,0,0,0-1.25.36l-.2-.58a3,3,0,0,1,1.58-.43c1.48,0,1.84,1,1.84,2v1.81a6.77,6.77,0,0,0,.08,1.15Zm-.13-2.46c-1,0-2,.15-2,1.09a.77.77,0,0,0,.82.83,1.21,1.21,0,0,0,1.17-.8,1,1,0,0,0,0-.28Z" transform="translate(-62.36 -25.72)"/>
    <path class="cls-4" d="M79.14,98.8v1.39H80.4v.67H79.14v2.61c0,.59.17.93.66.93a1.6,1.6,0,0,0,.51-.06l0,.66a2.15,2.15,0,0,1-.78.12,1.22,1.22,0,0,1-.95-.37,1.83,1.83,0,0,1-.33-1.25v-2.64h-.75v-.67h.75V99Z" transform="translate(-62.36 -25.72)"/>
    <path class="cls-4" d="M85.44,103.71c0,.5,0,.93,0,1.31H84.7l0-.79h0a1.82,1.82,0,0,1-1.6.9c-.76,0-1.66-.42-1.66-2.11v-2.83h.87v2.68c0,.92.28,1.53,1.08,1.53a1.26,1.26,0,0,0,1.16-.8,1.19,1.19,0,0,0,.08-.44v-3h.88Z" transform="translate(-62.36 -25.72)"/>
    <path class="cls-4" d="M86.79,104.12a2.27,2.27,0,0,0,1.15.35c.64,0,.94-.32.94-.72s-.25-.64-.9-.88c-.86-.31-1.27-.79-1.27-1.37a1.48,1.48,0,0,1,1.66-1.42,2.42,2.42,0,0,1,1.19.3l-.22.64a1.88,1.88,0,0,0-1-.28c-.52,0-.81.3-.81.66s.29.58.92.82c.84.32,1.27.74,1.27,1.46s-.66,1.44-1.81,1.44a2.75,2.75,0,0,1-1.35-.33Z" transform="translate(-62.36 -25.72)"/>
    <path class="cls-4" d="M93,97.93h.88V105H93Z" transform="translate(-62.36 -25.72)"/>
    <path class="cls-4" d="M96.32,98.83a.55.55,0,0,1-1.09,0,.54.54,0,0,1,.55-.55A.52.52,0,0,1,96.32,98.83Zm-1,6.19v-4.83h.88V105Z" transform="translate(-62.36 -25.72)"/>
    <path class="cls-4" d="M101.85,100.19c0,.35,0,.74,0,1.33v2.8a2.78,2.78,0,0,1-.69,2.21,2.57,2.57,0,0,1-1.76.58,3.12,3.12,0,0,1-1.61-.4L98,106a2.73,2.73,0,0,0,1.42.38c.9,0,1.56-.47,1.56-1.69v-.54h0a1.73,1.73,0,0,1-1.54.81,2.16,2.16,0,0,1-2.06-2.35,2.32,2.32,0,0,1,2.18-2.57,1.61,1.61,0,0,1,1.51.84h0l0-.73Zm-.91,1.91a1.25,1.25,0,0,0,0-.4,1.27,1.27,0,0,0-1.23-.93c-.84,0-1.44.71-1.44,1.83,0,1,.48,1.73,1.43,1.73a1.28,1.28,0,0,0,1.22-.89,1.53,1.53,0,0,0,.07-.47Z" transform="translate(-62.36 -25.72)"/>
    <path class="cls-4" d="M103.27,97.93h.88v3h0a1.63,1.63,0,0,1,.63-.62,1.81,1.81,0,0,1,.9-.25c.65,0,1.69.4,1.69,2.07V105h-.88v-2.77c0-.78-.29-1.44-1.12-1.44a1.26,1.26,0,0,0-1.18.88,1.07,1.07,0,0,0-.06.42V105h-.88Z" transform="translate(-62.36 -25.72)"/>
    <path class="cls-4" d="M109.84,98.8v1.39h1.26v.67h-1.26v2.61c0,.59.17.93.66.93a1.6,1.6,0,0,0,.51-.06l0,.66a2.15,2.15,0,0,1-.78.12,1.22,1.22,0,0,1-1-.37,1.78,1.78,0,0,1-.34-1.25v-2.64h-.75v-.67H109V99Z" transform="translate(-62.36 -25.72)"/>
    <path class="cls-4" d="M115.84,99.35h0l-1.13.61-.17-.67,1.42-.76h.75V105h-.85Z" transform="translate(-62.36 -25.72)"/>
    <path class="cls-4" d="M119.06,105v-.54l.69-.67c1.66-1.57,2.41-2.41,2.42-3.39a1.16,1.16,0,0,0-1.29-1.27,2.21,2.21,0,0,0-1.38.55l-.28-.62a2.85,2.85,0,0,1,1.84-.66,1.83,1.83,0,0,1,2,1.89c0,1.2-.87,2.17-2.24,3.48l-.52.48v0h2.92V105Z" transform="translate(-62.36 -25.72)"/>
    <path class="cls-4" d="M124.19,105v-.54l.69-.67c1.66-1.57,2.41-2.41,2.42-3.39A1.16,1.16,0,0,0,126,99.15a2.21,2.21,0,0,0-1.38.55l-.28-.62a2.85,2.85,0,0,1,1.84-.66,1.83,1.83,0,0,1,2,1.89c0,1.2-.87,2.17-2.24,3.48l-.52.48v0h2.92V105Z" transform="translate(-62.36 -25.72)"/>
    <path class="cls-4" d="M133.64,101.71c0,2.21-.82,3.42-2.26,3.42-1.27,0-2.13-1.19-2.15-3.33s.94-3.38,2.26-3.38S133.64,99.64,133.64,101.71Zm-3.53.1c0,1.69.52,2.64,1.32,2.64s1.33-1,1.33-2.7-.41-2.65-1.32-2.65S130.11,100,130.11,101.81Z" transform="translate(-62.36 -25.72)"/>
    <path class="cls-4" d="M134.45,105v-.54l.69-.67c1.66-1.57,2.41-2.41,2.42-3.39a1.16,1.16,0,0,0-1.29-1.27,2.21,2.21,0,0,0-1.38.55l-.28-.62a2.85,2.85,0,0,1,1.84-.66,1.83,1.83,0,0,1,2,1.89c0,1.2-.87,2.17-2.24,3.48l-.52.48v0h2.92V105Z" transform="translate(-62.36 -25.72)"/>
    <path class="cls-4" d="M143.9,101.71c0,2.21-.82,3.42-2.26,3.42-1.27,0-2.13-1.19-2.15-3.33s.94-3.38,2.26-3.38S143.9,99.64,143.9,101.71Zm-3.53.1c0,1.69.52,2.64,1.32,2.64s1.33-1,1.33-2.7-.41-2.65-1.32-2.65S140.37,100,140.37,101.81Z" transform="translate(-62.36 -25.72)"/>
  </g>
  <g>
    <path class="cls-4" d="M215.07,103.35h-2.62v2.42h2.92v.73h-3.78V99.77h3.63v.73h-2.77v2.13h2.62Z" transform="translate(-62.36 -25.72)"/>
    <path class="cls-4" d="M216.51,99.77h.86V103h0l.53-.71L220,99.77h1.08l-2.44,2.86,2.63,3.87h-1L218,103.2l-.64.73v2.57h-.86Z" transform="translate(-62.36 -25.72)"/>
  </g>
</svg>
